<?xml version="1.0" encoding="UTF-8"?>
<svg id="TeamDiscussion" xmlns="http://www.w3.org/2000/svg" viewBox="0 0 1000 1000">
  <defs>
    <style>
      .cls-1, .cls-2 {
        fill: #fff;
      }

      .cls-3, .cls-2, .cls-4 {
        fill-rule: evenodd;
      }

      .cls-3, .cls-5 {
        fill: #ff4081;
      }

      .cls-6 {
        fill: #ef96b4;
      }

      .cls-4, .cls-7 {
        fill: #651fff;
      }

      .cls-8 {
        fill: #00e5ff;
      }
    </style>
  </defs>
  <path class="cls-8" d="M407.4,416.82c-28.82,24.39-84.98,20.32-109.46,15.24-29.1-3.56,4.16-24.94,65.12-44.34,60.97-19.4,87.29-47.11,91.45-29.1,4.16,18.01-11.08,27.71-47.11,58.19Z"/>
  <path class="cls-8" d="M793.57,556.72c12.14,109.12,29.67,123.94,101.15,207.47,56.69,66.25,1.42,183.36-34.15,235.71H335.62c-30.73,0-130.92-90.09-150.9-113.44-6.81-7.95-14.66-16.37-23.68-25.27-110.59-109.12-47.2-328.72,31.02-371.83,78.22-43.11,167.24,39.07,307.5-87.57,140.26-126.64,282.77,53.89,294.01,154.93Z"/>
  <path class="cls-8" d="M721.27,343.48c12.14,109.12,29.67,123.94,101.15,207.47,56.69,66.25,1.42,183.36-34.15,235.71H263.32c-30.73,0-130.92-90.09-150.9-113.44-6.81-7.95-14.66-16.37-23.68-25.27-110.59-109.12-47.2-328.72,31.02-371.83,78.22-43.11,167.24,39.07,307.5-87.57,140.26-126.64,282.77,53.89,294.01,154.93Z"/>
  <path class="cls-8" d="M867.11,209.08c12.14,109.12,29.67,123.94,101.15,207.47,56.69,66.25,1.42,183.36-34.15,235.71H409.16c-30.73,0-130.92-90.09-150.9-113.44-6.81-7.95-14.66-16.37-23.68-25.27-110.59-109.12-47.2-328.72,31.02-371.83,78.22-43.11,167.24,39.07,307.5-87.57,140.26-126.64,282.77,53.89,294.01,154.93Z"/>
  <path class="cls-1" d="M281.47,812.72c-3.02,71.45,41.56,149.67,66.87,183.39,1.32,1.76,3.39,2.76,5.6,2.76h18.81c4.27,0,7.57-3.79,7.01-8.01-16.76-126.03-63.22-173.12-90.42-183.7-3.86-1.5-7.69,1.42-7.87,5.56Z"/>
  <path class="cls-4" d="M288.47,809.37c-2.1-.82-4.52,.66-4.63,3.45-1.49,35.23,8.77,72.28,22.62,104.81,13.85,32.51,31.22,60.33,43.77,77.06,.86,1.14,2.21,1.81,3.7,1.81h18.81c2.82,0,5.03-2.52,4.66-5.33-16.72-125.7-62.93-171.69-88.93-181.8Zm-9.38,3.25c.23-5.48,5.48-9.86,11.1-7.67,28.41,11.05,75.11,59.23,91.91,185.59,.75,5.63-3.65,10.7-9.36,10.7h-18.81c-2.92,0-5.71-1.33-7.5-3.71-12.76-17.01-30.33-45.15-44.34-78.04-14-32.87-24.53-70.66-23-106.87Z"/>
  <path class="cls-7" d="M423.9,770.12c-58.56,52.26-70.28,174.72-70.11,222.81,.01,3.84,3.17,6.82,7.01,6.82h17.42c2.63,0,5.09-1.5,6.3-3.84,58.61-112.18,52.58-181.83,50.46-220.66-.31-5.71-6.81-8.93-11.08-5.12Z"/>
  <path class="cls-1" d="M470.14,879.45c-46.17,22.03-82.55,76.47-99.36,109.54-2.34,4.6,1.08,9.88,6.24,9.88h20.71c1.37,0,2.73-.4,3.87-1.16,50.3-33.32,71.14-82.85,77.12-111.56,1.06-5.09-3.89-8.95-8.59-6.7Z"/>
  <path class="cls-4" d="M476.4,885.67c.66-3.15-2.3-5.48-5.24-4.09-22.65,10.81-43.03,29.64-59.88,50-16.84,20.35-30.04,42.07-38.38,58.48-1.49,2.93,.64,6.44,4.13,6.44h20.71c.91,0,1.81-.27,2.56-.76l1.31,1.97-1.31-1.97c49.65-32.89,70.22-81.79,76.11-110.07Zm-7.29-8.36c6.46-3.08,13.4,2.31,11.93,9.32-6.07,29.16-27.18,79.3-78.13,113.06-1.54,1.02-3.35,1.55-5.18,1.55h-20.71c-6.83,0-11.54-7.07-8.36-13.33,8.47-16.66,21.86-38.69,38.96-59.35,17.08-20.64,37.98-40.04,61.49-51.26Z"/>
  <path class="cls-4" d="M306.42,834.82c9.71,13.16,18.86,31.17,27.06,50.67,5.55,13.2,10.7,27.13,15.31,40.78l4.58-14.61,4.53,1.42-6.56,20.9c4.21,12.92,7.91,25.42,10.99,36.59,2.85,10.32,5.17,19.53,6.88,26.92l-4.62,1.07c-1.63-7.06-3.84-15.82-6.53-25.65l-16.39-7.33,1.94-4.32,12.8,5.72c-2.83-10.04-6.13-20.99-9.81-32.24-5.02-15.36-10.75-31.29-17.02-46.28l-22.12-4.92,1.03-4.63,18.8,4.19c-7.66-17.68-16-33.67-24.7-45.46l3.82-2.81Z"/>
  <path class="cls-2" d="M405.46,851.01c3.43-12.29,6.7-23.41,9.64-32.59,3.41-10.66,6.33-18.53,8.5-22.61l-4.19-2.22c-2.4,4.5-5.43,12.77-8.83,23.39-3.42,10.69-7.27,23.94-11.3,38.55-2.81,10.2-5.7,21.06-8.6,32.19l-6.86-16.08-4.37,1.85,9.28,21.75c-3.5,13.58-6.98,27.41-10.27,40.77-5.71,23.14-10.88,44.87-14.73,61.46l4.62,1.07c3.79-16.33,8.86-37.64,14.46-60.37l23.34-12.48-2.24-4.18-19.57,10.46c2.97-11.98,6.07-24.27,9.18-36.33,3.39-13.12,6.79-25.99,10.08-37.96l19.13-11.66-2.48-4.04-14.8,9.02Z"/>
  <path class="cls-4" d="M442.67,918.52c5.77-5.99,11.41-11.3,16.71-15.56l-2.98-3.69c-6.98,5.61-14.43,12.89-21.9,21.01-4.84,5.26-9.72,10.88-14.49,16.64l1.23-7.75-4.69-.74-2.51,15.82c-6.3,7.86-12.34,15.81-17.85,23.33-8.61,11.73-15.93,22.42-20.87,30.01l3.98,2.58c4.76-7.31,11.76-17.54,20.01-28.82h16.98v-4.74h-13.49c4.82-6.49,10-13.23,15.34-19.88,6.3-7.84,12.83-15.56,19.3-22.62l16.48-2.47-.7-4.69-10.54,1.58Z"/>
  <path class="cls-1" d="M541.55,1001.25h113.86c61.76-22.28,123.51-124.97,66.58-114.32-56.93,10.66-112.9,5.81-38.6-31,74.3-36.81,33.77-64.91,0-62-33.77,2.91-27.98-20.35-14.47-64.91,13.51-44.57,0-85.25-37.63-85.25s-7.72,110.44-37.63,118.19c-29.91,7.75-15.44-43.6-52.11-32.94-36.67,10.66,23.16,137.57,0,126.91-23.16-10.65-20.26-62-61.76-23.25-33.2,31,27.34,125.3,61.76,168.57Z"/>
  <path class="cls-1" d="M264.78,702.41h113.86c61.76-22.28,123.51-124.97,66.58-114.32-56.93,10.66-112.9,5.81-38.6-31,74.3-36.81,33.77-64.91,0-62-33.77,2.91-27.98-20.35-14.47-64.91,13.51-44.57,0-85.25-37.63-85.25s-7.72,110.44-37.63,118.19c-29.91,7.75-15.44-43.6-52.11-32.94-36.67,10.66,23.16,137.57,0,126.91-23.16-10.65-20.26-62-61.76-23.25-33.2,31,27.34,125.3,61.76,168.57Z"/>
  <path class="cls-1" d="M616.78,372.78h113.86c61.76-22.28,123.51-124.97,66.58-114.32-56.93,10.66-112.9,5.81-38.6-31,74.3-36.81,33.77-64.91,0-62-33.77,2.91-27.98-20.35-14.47-64.91,13.51-44.57,0-85.25-37.63-85.25s-7.72,110.44-37.63,118.19c-29.91,7.75-15.44-43.6-52.11-32.94-36.67,10.66,23.16,137.57,0,126.91-23.16-10.65-20.26-62-61.76-23.25-33.2,31,27.34,125.3,61.76,168.57Z"/>
  <path class="cls-7" d="M260.88,1000.13l-5.49-43.95H26.02l-4.12,43.95h238.97Z"/>
  <path class="cls-6" d="M430.81,745.11c-12.28,7.16-28.14,15.77-34.53,19.18l-7.67,42.19c4.69-4.69,20.46-16.11,46.05-24.29,31.97-10.23,60.11-26.85,51.16-40.91-7.16-11.25-23.45-4.69-30.69,0-2.98-1.7-12.02-3.32-24.3,3.84Zm-34.04-135.71c-1.99,6.93-9.94,15.27-13.66,18.57,7.04,11.56,21.86,33.67,24.84,29.71,3.72-4.95,13.66-18.57,36.02-37.14,22.36-18.57,12.42-40.85,0-43.33-12.42-2.47-26.08,17.33-28.57,17.33s-1.25-3.71,0-9.91c1.24-6.19-1.25-13.62-11.18-4.95-9.94,8.67-4.97,21.04-7.45,29.71Zm-221.62-99.1l-17.28,29.45,45.2,41.49,18.61-45.51,.27,.03c12.01,1.35,33.07,3.71,47.59-33.49,14.62-37.48,6.65-81.65-47.86-80.31-43.6,1.07-49.19,59.34-46.53,88.34Z"/>
  <path class="cls-3" d="M21.91,963.05c-15.11-1.37-23.22-23.06,0-152.45,28.84-160.69,93.39-280.17,123.61-282.92,30.21-2.75,75.54,53.56,79.66,64.55,.25,.66,.58,1.91,.97,3.67,.13,.15,.27,.3,.4,.45,17.4,26.55,54.39,81.03,63.18,86.52,6.24,3.9,30.2-17.45,52-36.88,16.59-14.78,31.93-28.45,37.27-29.04,12.36-1.37,48.07,32.96,48.07,39.83,0,3.92-27.26,52.97-54.5,97.19,11.24-2.21,19.72-2.97,22.92-1.05,13.73,8.24,28.84,53.56,24.72,67.3-3.29,10.99-97.51,73.25-144.21,103.01-.3,8.16,.58,15.22,1.3,21.03,1.51,12.11,2.34,18.8-9.54,18.8H21.91Z"/>
  <path class="cls-7" d="M182.59,930.09c32.96,13.19,75.99,.92,93.39-6.87l1.37,17.85c-20.6,10.07-68.94,19.78-103,0-34.06-19.78-61.35-140.09-71.42-199.14,12.82,57.23,46.7,174.97,79.66,188.16Zm-14.17-425.01c1.05,8.46,11.84,14.11,17.1,15.87,3.07,1.32,10.52,4.23,15.78,5.29,6.58,1.32,21.04-15.87,10.52-27.77-10.52-11.9,2.63-35.71,13.15-26.45,10.52,9.26,3.95,33.06,9.21,30.41,5.26-2.64,13.15-30.41,26.3-35.71,13.15-5.29,53.92,6.61,56.55-23.8,2.63-30.42-27.62-30.42-48.66-30.42s-35.51-15.87-73.64,0c-38.14,15.87-27.62,82-26.3,92.58Z"/>
  <path class="cls-7" d="M249.89,932.83c-37.36-40.65-86.52-55.85-105.75-57.68,4.12,16.02,23.35,51.36,39.83,56.31,26.09,9.61,53.56,4.12,65.92,1.37Zm17.85-164.81c-4.39-5.49-16.48-97.51-21.97-142.83l-19.23-27.47c8.24,59.06,26.92,177.99,35.71,181.29,8.79,3.29,75.99-15.11,108.5-24.72-32.51,6.87-98.61,19.23-103.01,13.73Zm-60.43-236.22c3.3,1.1,11.45,3.2,15.11,4.12l-5.49,10.99-9.61-15.11Zm507.45,420.55l-6.87,49.44h274.68l-6.87-49.44h-260.95Z"/>
  <path class="cls-6" d="M555.2,515.85c.68,7.18,6.97,16.83,10.03,20.76-9.04,10.07-27.67,29.09-29.87,24.65-2.76-5.55-10.02-20.76-28.6-43.12-18.58-22.36-4.72-42.44,7.95-42.59,12.66-.15,22.46,21.82,24.91,22.28,2.44,.45,1.9-3.42,1.82-9.74-.08-6.31,3.72-13.16,11.9-2.82,8.18,10.34,1.02,21.6,1.87,30.58Zm261.61-1.58l16.08,27.92-42.05,39.35-17.31-43.16-.25,.03c-11.17,1.28-30.76,3.52-44.27-31.76-13.6-35.54-6.18-77.43,44.52-76.16,40.56,1.02,45.75,56.27,43.28,83.77Z"/>
  <path class="cls-3" d="M767.41,578.98c-33.29,14.13-96.88,39.32-111.7,38.26-10.41-.74-30.08-27.25-48.32-51.84-15.46-20.83-29.9-40.29-36.83-41.55-15.11-2.75-49.44,26.1-52.19,34.34-2.75,8.24,74.16,170.3,101.63,184.04,19.6,9.8,76.38-8.09,110.82-21.49-14.42,92.93-26.82,202.5-28.42,223.38-1.17,15.22,5.4,23.31,13.73,27.28-1.09,3.34-1.96,6.64-2.87,10.1-.2,.76-.4,1.52-.61,2.29-1.99,7.48,3.49,15.26,11.23,15.26h57.4c6.48,0,12.54-3.24,16.14-8.64l10.72-16.09h153.82c48.07,0,32.96-90.64,0-234.85-32.96-144.21-81.03-197.77-101.63-204.64-18.94-6.31-68.06,18.72-92.94,44.14Z"/>
  <path class="cls-7" d="M759.14,831.07c-4.06,27.63-31.27,107.01-44.37,143.25,9.3-37.52,28.91-118.7,32.96-143.25,4.06-24.56,12.68-138.14,16.48-191.86,0,52.44-1.01,164.23-5.07,191.86Zm81.8,143.25c51.69-103.95,37.83-103.95,44.13-247.21-3.78,34.65-13.11,111.81-20.17,143.26-7.06,31.44-40.76,82.4-56.74,103.95h32.78Zm-126.17-267.81c8.79-9.89,21.06-39.37,28.84-67.3-5.49,39.83-8.24,53.56-12.36,81.03-18.68,10.99-54.48,19.23-70.05,21.98,14.19-7.78,44.77-25.82,53.56-35.71Z"/>
  <path class="cls-7" d="M676.32,738.1c-27.47-20.88-70.05-31.59-87.9-34.34,6.41,11.44,22.52,35.43,35.71,39.83,13.19,4.39,40.28-1.83,52.19-5.49Zm43.95-260.94c5.49-15.38,18.77-25.64,24.72-28.84,9.89,26.37,22.43,32.05,27.47,31.59,0-6.87,8.24-16.48,17.85-8.24,15.38,13.19,1.83,25.64-6.87,30.22l35.71,39.83,12.36-4.12c10.99-1.37,23.35,1.37,46.7,31.59,18.68,24.17,25.18,17.4,26.1,10.99,8.24-61.8-34.34-93.39-56.31-111.24-21.98-17.85-28.84-67.73-75.54-63.18-45.05,4.39-54.94,46.24-52.19,71.42Zm123.85,442.23c-1.94-40.95,7.27-90.86,32.71-112.62-2.42,16.21-9.21,50.93-12.12,65.27-2.91,14.33-15.35,37.97-20.6,47.35Zm-56.56-384.55c-3.29,1.1-11.44,1.83-15.11,2.75l5.49,12.36,9.61-15.11Z"/>
  <path class="cls-1" d="M203.67,239.16c0-6.37,5.18-11.53,11.57-11.53h199.47c6.39,0,11.57,5.16,11.57,11.53v85.94c0,6.37-5.18,11.53-11.57,11.53H215.24c-6.39,0-11.57-5.16-11.57-11.53v-85.94Z"/>
  <path class="cls-4" d="M201.36,239.16c0-7.64,6.22-13.84,13.88-13.84h199.47c7.67,0,13.89,6.2,13.89,13.84v85.94c0,7.64-6.22,13.84-13.89,13.84H215.24c-7.67,0-13.88-6.2-13.88-13.84v-85.94Zm13.88-9.23c-5.11,0-9.26,4.13-9.26,9.23v85.94c0,5.09,4.14,9.23,9.26,9.23h199.47c5.11,0,9.25-4.13,9.25-9.23v-85.94c0-5.09-4.14-9.23-9.25-9.23H215.24Z"/>
  <path class="cls-5" d="M270.38,282.03c0,6.67-5.43,12.08-12.12,12.08s-12.13-5.41-12.13-12.08,5.43-12.08,12.13-12.08,12.12,5.41,12.12,12.08Zm57.9,0c0,6.67-5.43,12.08-12.12,12.08s-12.13-5.41-12.13-12.08,5.43-12.08,12.13-12.08,12.12,5.41,12.12,12.08Zm59.19,0c0,6.67-5.43,12.08-12.13,12.08s-12.13-5.41-12.13-12.08,5.43-12.08,12.13-12.08,12.13,5.41,12.13,12.08Z"/>
  <path class="cls-1" d="M552.62,265.61c0-5.79,4.7-10.48,10.49-10.48h213.14c5.8,0,10.49,4.69,10.49,10.48v94c0,5.79-4.7,10.48-10.49,10.48h-213.14c-5.8,0-10.49-4.69-10.49-10.48v-94Z"/>
  <path class="cls-4" d="M550.52,265.61c0-6.95,5.64-12.58,12.59-12.58h213.14c6.95,0,12.59,5.63,12.59,12.58v94c0,6.95-5.64,12.58-12.59,12.58h-213.14c-6.95,0-12.59-5.63-12.59-12.58v-94Zm12.59-8.39c-4.64,0-8.39,3.75-8.39,8.39v94c0,4.63,3.76,8.39,8.39,8.39h213.14c4.64,0,8.39-3.76,8.39-8.39v-94c0-4.63-3.76-8.39-8.39-8.39h-213.14Z"/>
  <path class="cls-5" d="M589.16,299.43c0-5.79,4.7-10.48,10.49-10.48h27.74c5.79,0,10.49,4.69,10.49,10.48v27.72c0,5.79-4.7,10.48-10.49,10.48h-27.74c-5.8,0-10.49-4.69-10.49-10.48v-27.72Z"/>
  <path class="cls-4" d="M748.85,299.16h-77.14v-4.19h77.14v4.19Zm-39.27,36.52h-37.87v-4.19h37.87v4.19Z"/>
  <path class="cls-5" d="M888.01,343.66l-12.34,16.35c-.75,1-1.98,1.47-3.18,1.24l-15.25-2.96c-3.28-.64-5.26,3.63-2.73,5.88l11.99,10.65c.88,.78,1.29,1.98,1.09,3.15l-3.01,17.57c-.56,3.3,3.36,5.35,5.59,2.91l12.32-13.5c.72-.79,1.77-1.18,2.81-1.03l14.25,2.01c3.21,.45,5.03-3.69,2.59-5.89l-10.6-9.57c-.85-.77-1.26-1.94-1.08-3.09l3.34-21.1c.55-3.45-3.71-5.38-5.8-2.62ZM93.55,386.54l1.34,11.98c.08,.73-.25,1.43-.86,1.83l-7.73,4.99c-1.66,1.07-.78,3.69,1.21,3.61l9.45-.39c.69-.03,1.35,.31,1.74,.89l5.83,8.68c1.1,1.63,3.61,.89,3.57-1.06l-.19-10.76c-.01-.63,.28-1.22,.79-1.59l6.92-4.99c1.56-1.12,.66-3.62-1.28-3.56l-8.42,.29c-.68,.02-1.32-.31-1.71-.87l-7.12-10.31c-1.16-1.69-3.77-.76-3.55,1.26Z"/>
</svg>