<?xml version="1.0" encoding="UTF-8"?>
<svg id="Ideation" xmlns="http://www.w3.org/2000/svg" viewBox="0 0 1000 1000">
  <defs>
    <style>
      .cls-1 {
        fill: #fff;
      }

      .cls-2 {
        fill: #6245a3;
      }

      .cls-3 {
        fill: #ffd9e6;
      }

      .cls-4 {
        fill: #ff4081;
      }

      .cls-5 {
        opacity: .19;
      }

      .cls-6 {
        fill: #6144a0;
      }

      .cls-7 {
        fill: none;
      }

      .cls-8 {
        fill: #00e5ff;
      }

      .cls-9 {
        opacity: .28;
      }

      .cls-10 {
        fill: #af92ef;
      }

      .cls-11 {
        fill: #8161c6;
      }

      .cls-12 {
        fill: #651fff;
      }

      .cls-13 {
        fill: #8c62e8;
      }
    </style>
  </defs>
  <rect class="cls-3" x="85.02" y="519.44" width="69.42" height="69.42" rx="2.53" ry="2.53"/>
  <rect class="cls-3" x="616.26" y="164.33" width="196.67" height="34.76" rx="2.53" ry="2.53"/>
  <rect class="cls-3" x="579.14" y="112.33" width="196.67" height="34.76" rx="2.53" ry="2.53"/>
  <rect class="cls-3" x="732.12" y="58.99" width="196.67" height="34.76" rx="2.53" ry="2.53"/>
  <rect class="cls-3" x="573.89" y="870.71" width="196.67" height="34.76" rx="2.53" ry="2.53"/>
  <rect class="cls-3" x="729.27" y="927.6" width="196.67" height="34.76" rx="2.53" ry="2.53"/>
  <rect class="cls-3" x="204.67" y="888.09" width="196.67" height="34.76" rx="2.53" ry="2.53"/>
  <rect class="cls-3" x="444.54" y="944.98" width="196.67" height="34.76" rx="2.53" ry="2.53"/>
  <rect class="cls-3" x="44.55" y="944.98" width="196.67" height="34.76" rx="2.53" ry="2.53"/>
  <rect class="cls-3" x="22.68" y="112.33" width="196.67" height="34.76" rx="2.53" ry="2.53"/>
  <rect class="cls-3" x="295.77" y="112.33" width="196.67" height="34.76" rx="2.53" ry="2.53"/>
  <rect class="cls-3" x="47.49" y="41.62" width="196.67" height="34.76" rx="2.53" ry="2.53"/>
  <rect class="cls-3" x="444.54" y="58.99" width="196.67" height="34.76" rx="2.53" ry="2.53"/>
  <rect class="cls-3" x="543.41" y="684.98" width="80.33" height="33.45" rx="2.53" ry="2.53"/>
  <rect class="cls-3" x="652.83" y="223.69" width="236.72" height="467" rx="2.53" ry="2.53"/>
  <rect class="cls-3" x="747.32" y="108.59" width="236.72" height="467" rx="2.53" ry="2.53"/>
  <rect class="cls-3" x="198.47" y="577.72" width="256.69" height="112.98" rx="2.53" ry="2.53"/>
  <rect class="cls-3" x="57.62" y="157.55" width="513.19" height="332.06" rx="2.53" ry="2.53"/>
  <path class="cls-3" d="M32.23,713.53h508.12c1.4,0,2.53,.54,2.53,1.2v154.78c0,.66-1.13,1.2-2.53,1.2H32.23c-1.4,0-2.53-.54-2.53-1.2v-154.78c0-.66,1.13-1.2,2.53-1.2Z"/>
  <path class="cls-3" d="M567.08,677.62h408.24c1.12,0,2.04,.54,2.04,1.2v154.78c0,.66-.91,1.2-2.04,1.2h-408.24c-1.12,0-2.04-.54-2.04-1.2v-154.78c0-.66,.91-1.2,2.04-1.2Z"/>
  <circle class="cls-8" cx="179.92" cy="483.09" r="4.95"/>
  <circle class="cls-8" cx="179.92" cy="470.66" r="4.95"/>
  <circle class="cls-8" cx="179.92" cy="458.23" r="4.95"/>
  <circle class="cls-8" cx="603.83" cy="272.12" r="4.95"/>
  <circle class="cls-8" cx="616.26" cy="272.12" r="4.95"/>
  <circle class="cls-8" cx="628.69" cy="272.12" r="4.95"/>
  <path class="cls-8" d="M216.41,504.14h-36.49c-1.05,0-1.9-.85-1.9-1.9v-230.12c0-1.05,.85-1.9,1.9-1.9H778.28c1.05,0,1.9,.85,1.9,1.9h0v213.27c0,1.05-.85,1.9-1.9,1.9s-1.9-.85-1.9-1.9v-211.37H181.83v226.32h34.59c1.05,0,1.9,.85,1.9,1.9s-.85,1.9-1.9,1.9Zm722.98,32.25v203.64c0,3.66-2.97,6.63-6.63,6.63h-204.61c-3.66-.01-6.62-2.97-6.63-6.63v-231.87c0-3.66,2.97-6.63,6.63-6.63h176.35l34.89,34.86Z"/>
  <path class="cls-12" d="M940.35,537.35h-32.54c-1.83,0-3.32-1.48-3.32-3.32v-32.5l34.89,34.86,.96,.96Z"/>
  <rect class="cls-1" x="749.39" y="545.89" width="57.77" height="51.08" rx="2.53" ry="2.53"/>
  <rect class="cls-2" x="750.71" y="700.88" width="153.79" height="3.8"/>
  <rect class="cls-2" x="750.71" y="682.64" width="153.79" height="3.8"/>
  <rect class="cls-2" x="750.71" y="664.39" width="153.79" height="3.8"/>
  <rect class="cls-2" x="750.71" y="646.15" width="153.79" height="3.8"/>
  <rect class="cls-2" x="750.71" y="627.91" width="153.79" height="3.8"/>
  <rect class="cls-2" x="750.71" y="609.67" width="153.79" height="3.8"/>
  <rect class="cls-2" x="824.19" y="591.42" width="80.31" height="3.8"/>
  <rect class="cls-2" x="824.19" y="573.18" width="80.31" height="3.8"/>
  <rect class="cls-2" x="824.19" y="554.94" width="80.31" height="3.8"/>
  <path class="cls-8" d="M210.98,709.77h-46.69c-14.39-.02-26.04-11.67-26.06-26.06v-10.35c.02-14.39,11.67-26.04,26.06-26.06h46.69c14.39,.02,26.04,11.67,26.06,26.06v10.35c-.02,14.39-11.67,26.04-26.06,26.06Zm-46.69-54.87c-10.19,.01-18.45,8.27-18.46,18.46v10.35c.01,10.19,8.27,18.45,18.46,18.46h46.69c10.19-.01,18.45-8.27,18.46-18.46v-10.35c-.01-10.19-8.27-18.45-18.46-18.46h-46.69Z"/>
  <path class="cls-8" d="M203.6,619.87l-4.56,46.49-2.38,24.34-4.98,50.84c-.2,1.95-1.83,3.43-3.79,3.43H96.17c-1.96,0-3.59-1.49-3.79-3.43l-4.98-50.84-2.38-24.34-4.56-46.49c-.2-2.1,1.33-3.96,3.43-4.16,.12-.01,.24-.02,.36-.02h115.56c2.11,0,3.81,1.71,3.81,3.82,0,.12,0,.24-.02,.36Z"/>
  <polygon class="cls-10" points="199.04 666.36 196.66 690.7 87.4 690.7 85.02 666.36 199.04 666.36"/>
  <g class="cls-5">
    <path class="cls-4" d="M104.18,536.02c.14,1.13,.03,2.28-.34,3.37-.42,1.07-1,2.07-1.72,2.97-.66,.8-1.2,1.7-1.59,2.66-.66,1.84-.57,3.87,.26,5.65,.48,.88,1.08,1.69,1.78,2.4,.85,.88,1.55,1.89,2.09,2.98,1.06,2.38,1.06,5.09,0,7.47-.54,1.09-1.25,2.1-2.09,2.98-.7,.71-1.3,1.52-1.78,2.4-.4,.87-.63,1.81-.68,2.77-.05,.98,.09,1.96,.43,2.88,.4,.96,.93,1.85,1.59,2.66,.72,.9,1.3,1.9,1.72,2.98,.36,1.08,.48,2.23,.34,3.37-.12-1.08-.46-2.12-.98-3.08-.56-.91-1.24-1.74-2.03-2.46-.86-.81-1.58-1.75-2.16-2.78-.55-1.11-.85-2.33-.89-3.56-.06-1.26,.15-2.52,.63-3.68,.51-1.1,1.17-2.13,1.97-3.04,.67-.74,1.22-1.56,1.66-2.45,.69-1.74,.69-3.68,0-5.42-.44-.89-1-1.71-1.66-2.45-.8-.91-1.47-1.93-1.98-3.04-.48-1.16-.7-2.42-.63-3.68,.04-1.24,.34-2.45,.89-3.56,.57-1.03,1.3-1.97,2.16-2.78,.79-.72,1.47-1.55,2.03-2.46,.52-.95,.85-2,.98-3.08Z"/>
  </g>
  <g class="cls-5">
    <path class="cls-4" d="M141.62,512.24c.14,1.13,.03,2.28-.34,3.37-.42,1.07-1,2.07-1.72,2.97-.66,.8-1.2,1.7-1.59,2.66-.66,1.84-.57,3.87,.26,5.65,.48,.88,1.08,1.69,1.78,2.4,.85,.88,1.55,1.89,2.09,2.98,1.06,2.38,1.06,5.09,0,7.47-.54,1.09-1.25,2.1-2.09,2.98-.7,.71-1.3,1.52-1.78,2.4-.82,1.78-.91,3.8-.25,5.65,.4,.96,.93,1.85,1.59,2.66,.72,.9,1.3,1.9,1.72,2.98,.36,1.08,.48,2.23,.34,3.37-.12-1.08-.46-2.12-.98-3.08-.56-.91-1.24-1.74-2.03-2.46-.86-.81-1.58-1.75-2.16-2.78-.55-1.11-.85-2.33-.89-3.56-.06-1.26,.15-2.52,.63-3.68,.51-1.1,1.17-2.13,1.97-3.04,.67-.74,1.22-1.56,1.66-2.45,.69-1.74,.69-3.68,0-5.42-.44-.89-1-1.71-1.66-2.45-.8-.91-1.47-1.93-1.98-3.04-.48-1.16-.7-2.42-.63-3.68,.04-1.24,.34-2.45,.89-3.56,.57-1.03,1.3-1.97,2.16-2.78,.79-.72,1.47-1.55,2.03-2.46,.52-.95,.85-2,.98-3.08Z"/>
  </g>
  <g class="cls-5">
    <path class="cls-4" d="M175.63,551.3c.16,1.24,.03,2.51-.37,3.69-.46,1.18-1.1,2.28-1.89,3.26-.72,.88-1.31,1.86-1.75,2.92-.72,2.02-.62,4.25,.28,6.2,.52,.97,1.18,1.85,1.95,2.63,.93,.97,1.7,2.07,2.3,3.27,1.16,2.61,1.16,5.59,0,8.19-.6,1.2-1.37,2.31-2.3,3.27-.77,.78-1.43,1.67-1.95,2.63-.9,1.95-1,4.17-.28,6.2,.44,1.05,1.03,2.03,1.75,2.91,.79,.99,1.43,2.09,1.89,3.27,.4,1.19,.53,2.45,.37,3.7-.14-1.18-.5-2.33-1.07-3.38-.62-1-1.36-1.91-2.23-2.7-.94-.89-1.74-1.92-2.37-3.05-.6-1.22-.93-2.55-.98-3.91-.07-1.38,.17-2.76,.69-4.04,.56-1.21,1.29-2.33,2.17-3.34,.73-.81,1.34-1.71,1.82-2.69,.76-1.91,.76-4.04,0-5.95-.48-.98-1.09-1.88-1.82-2.69-.88-1-1.61-2.12-2.17-3.33-.53-1.28-.77-2.66-.7-4.04,.04-1.36,.37-2.69,.98-3.91,.63-1.13,1.43-2.16,2.37-3.05,.86-.79,1.61-1.7,2.23-2.7,.57-1.05,.94-2.19,1.07-3.38Z"/>
  </g>
  <path class="cls-12" d="M410.41,624.1v121.77h98.51v-121.77h-98.51Zm64.25,50.94c0,8.86-7.18,16.04-16.04,16.04s-16.04-7.18-16.04-16.04h0v-16.04h32.08v16.04Z"/>
  <path class="cls-6" d="M410.41,677.24h32.35c-.11-.73-.16-1.47-.17-2.21v-16.04h32.08v16.04c0,.74-.06,1.48-.17,2.21h34.42v-53.14h-98.51v53.14Z"/>
  <rect class="cls-12" x="232.93" y="370.12" width="453.48" height="288.88" rx="20.27" ry="20.27"/>
  <rect class="cls-1" x="252.89" y="389.15" width="413.54" height="250.81" rx="8.87" ry="8.87"/>
  <path class="cls-8" d="M659.18,389.15H260.15c-4.01,0-7.26,3.25-7.26,7.26v12.15h413.54v-12.15c0-4.01-3.25-7.26-7.26-7.26Z"/>
  <rect class="cls-10" x="303.01" y="443.98" width="98.51" height="67.04" rx="2.53" ry="2.53"/>
  <rect class="cls-2" x="433.22" y="452.12" width="100.33" height="3.8"/>
  <rect class="cls-2" x="433.22" y="476.23" width="151.01" height="3.8"/>
  <rect class="cls-2" x="433.22" y="500.34" width="125.67" height="3.8"/>
  <rect class="cls-10" x="303.01" y="568.01" width="69.32" height="25.54" rx="2.53" ry="2.53"/>
  <rect class="cls-10" x="396.05" y="568.01" width="69.32" height="25.54" rx="2.53" ry="2.53"/>
  <rect class="cls-10" x="489.57" y="568.01" width="69.32" height="25.54" rx="2.53" ry="2.53"/>
  <path class="cls-3" d="M253.83,550.33l23.54,29.5c11.76-.61,23.54,.88,34.78,4.39l-17.08-12.95,2.06-2.72,17.08,12.95c-6.41-9.87-11.02-20.8-13.63-32.27l-34.31-14.51-12.44,15.61Zm30.1,2.9c2.62,1.99,3.14,5.74,1.15,8.36-1.99,2.62-5.72,3.13-8.34,1.15-2.59-2.02-3.09-5.73-1.13-8.37,1.98-2.61,5.71-3.13,8.32-1.14h0Z"/>
  <path class="cls-12" d="M228.13,541.06l19.39,14.71c1.42,1.07,3.43,.79,4.5-.62l17.29-22.8,.69-.9c1.07-1.42,.79-3.43-.62-4.5l-19.39-14.71-21.86,28.82Zm84.02,43.16l-17.08-12.95,2.06-2.72,17.08,12.95c-6.4-9.87-11.02-20.8-13.63-32.27l-30.11-12.74-6.74,8.89-6.74,8.9,20.38,25.55c11.76-.61,23.54,.88,34.78,4.39h0Zm-36.54-29.85c2-2.61,5.74-3.1,8.35-1.1,2.61,2,3.1,5.74,1.1,8.35-1.99,2.6-5.71,3.1-8.32,1.12-2.59-2.02-3.09-5.73-1.13-8.37Z"/>
  <path class="cls-10" d="M249.99,512.24l-21.86,28.82,19.39,14.71c1.42,1.07,3.43,.79,4.5-.62l17.29-22.8,.69-.9c1.07-1.42,.79-3.43-.62-4.5l-19.39-14.71Z"/>
  <path class="cls-11" d="M741.07,663.69l-10.3,10.88c-2.77,2.92-7.38,3.03-10.3,.26-.11-.11-.22-.22-.33-.33l-33.78-35.88c-1.21-1.3-1.2-3.31,.02-4.59l11.64-12.33c1.21-1.29,3.21-1.41,4.57-.28l37.8,31.64c3.11,2.55,3.55,7.14,1,10.25-.11,.13-.22,.26-.34,.38Z"/>
  <path class="cls-10" d="M741.06,663.68l-6.79,7.18c1.61-3.05,.85-6.8-1.82-8.99l-37.82-31.63c-1.35-1.13-3.35-1.01-4.57,.26l-4.4,4.66c.17-.42,.41-.81,.72-1.15l11.65-12.32c1.2-1.29,3.21-1.42,4.57-.29l37.82,31.63c3.1,2.57,3.54,7.16,.97,10.26-.11,.13-.21,.25-.33,.37h0Z"/>
  <rect class="cls-7" x="591.37" y="528.39" width="150.12" height="150.12" transform="translate(-16.55 18.8) rotate(-1.6)"/>
  <path class="cls-6" d="M687.4,613.89l9.96,8.15-11.04,11.88-8.85-9.64,9.92-10.38Z"/>
  <path class="cls-11" d="M697.61,580.98c-.82-29.49-25.4-52.74-54.89-51.91s-52.74,25.4-51.91,54.89,25.4,52.74,54.89,51.91c29.49-.82,52.74-25.4,51.91-54.89Zm-52.21,41.03c-21.86,.62-40.09-16.61-40.7-38.47-.62-21.86,16.61-40.09,38.47-40.7,21.86-.62,40.09,16.61,40.7,38.47,0,0,0,0,0,.01,.61,21.86-16.61,40.08-38.47,40.69h0Z"/>
  <path class="cls-10" d="M626.96,610.96c6.37,6.04,14.58,9.78,23.32,10.62-21.6,3.37-41.84-11.41-45.21-33.01-3.37-21.6,11.41-41.84,33.01-45.21,3.31-.52,6.68-.61,10.02-.28-21.6,3.33-36.41,23.55-33.07,45.15,1.34,8.69,5.54,16.69,11.94,22.73Z"/>
  <g class="cls-9">
    <rect class="cls-13" x="602.67" y="317.97" width="237.69" height="155.18" rx="12.7" ry="12.7"/>
  </g>
  <rect class="cls-1" x="626.09" y="298.39" width="237.69" height="155.18" rx="12.7" ry="12.7"/>
  <path class="cls-12" d="M851.08,455.47h-212.29c-8.06,0-14.59-6.54-14.6-14.6v-129.78c0-8.06,6.54-14.59,14.6-14.6h212.29c8.06,0,14.59,6.54,14.6,14.6v129.78c0,8.06-6.54,14.59-14.6,14.6Zm-212.29-155.18c-5.96,0-10.79,4.84-10.8,10.8v129.78c0,5.96,4.84,10.79,10.8,10.8h212.29c5.96,0,10.79-4.84,10.8-10.8v-129.78c0-5.96-4.84-10.79-10.8-10.8h-212.29Z"/>
  <rect class="cls-12" x="763.8" y="356.26" width="76.96" height="3.8"/>
  <rect class="cls-12" x="763.8" y="375.18" width="76.96" height="3.8"/>
  <rect class="cls-12" x="763.8" y="394.11" width="76.96" height="3.8"/>
  <rect class="cls-12" x="649.79" y="413.63" width="190.97" height="3.8"/>
  <rect class="cls-12" x="649.79" y="430.96" width="190.97" height="3.8"/>
  <g class="cls-5">
    <rect class="cls-4" x="652.83" y="351.53" width="85.77" height="55.61" rx="3.8" ry="3.8"/>
  </g>
  <rect class="cls-12" x="626.09" y="328.82" width="237.69" height="3.8"/>
  <rect class="cls-10" x="659.16" y="345.49" width="85.77" height="55.61" rx="3.8" ry="3.8"/>
  <rect class="cls-2" x="7.31" y="744.81" width="985.38" height="11.4"/>
  <g class="cls-9">
    <rect class="cls-13" x="118.95" y="231.21" width="159.32" height="217.69" rx="5.07" ry="5.07"/>
  </g>
  <rect class="cls-1" x="100.27" y="212.53" width="159.32" height="217.69" rx="5.07" ry="5.07"/>
  <rect class="cls-12" x="133.41" y="401.11" width="65.06" height="3.8"/>
  <rect class="cls-12" x="133.41" y="385.15" width="103.07" height="3.8"/>
  <rect class="cls-12" x="133.41" y="365.08" width="65.06" height="3.8"/>
  <rect class="cls-12" x="133.41" y="349.12" width="103.07" height="3.8"/>
  <rect class="cls-12" x="133.41" y="333.16" width="103.07" height="3.8"/>
  <circle class="cls-8" cx="179.92" cy="272.12" r="31.01" transform="translate(-117.5 406.13) rotate(-80.78)"/>
  <path class="cls-12" d="M254.52,432.12H105.33c-3.85,0-6.96-3.12-6.97-6.97V217.6c0-3.85,3.12-6.96,6.97-6.97H254.52c3.85,0,6.96,3.12,6.97,6.97v207.56c0,3.85-3.12,6.96-6.97,6.97ZM105.33,214.43c-1.75,0-3.17,1.42-3.17,3.17v207.56c0,1.75,1.42,3.17,3.17,3.17H254.52c1.75,0,3.17-1.42,3.17-3.17V217.6c0-1.75-1.42-3.17-3.17-3.17H105.33Z"/>
  <path class="cls-12" d="M121.65,394.08h-7.73c-1.75,0-3.17-1.42-3.17-3.17v-7.73c0-1.75,1.42-3.17,3.17-3.17h7.73c1.75,0,3.17,1.42,3.17,3.17v7.73c0,1.75-1.42,3.17-3.17,3.17Zm-7.09-3.8h6.46v-6.46h-6.46v6.46Zm7.09-48.19h-7.73c-1.75,0-3.17-1.42-3.17-3.17v-7.73c0-1.75,1.42-3.17,3.17-3.17h7.73c1.75,0,3.17,1.42,3.17,3.17v7.73c0,1.75-1.42,3.17-3.17,3.17Zm-7.09-3.8h6.46v-6.46h-6.46v6.46Z"/>
  <rect class="cls-2" x="410.41" y="713.53" width="98.51" height="20.86"/>
  <path class="cls-12" d="M531.72,744.81h-144.11v-14.52c0-3.5,2.84-6.33,6.33-6.33h131.45c3.5,0,6.33,2.84,6.33,6.33v14.52Z"/>
  <circle class="cls-1" cx="449.67" cy="272.12" r="53.66"/>
  <path class="cls-10" d="M455.55,307.37c0,3.59-3.06,5.48-6.09,5.48s-6.09-1.88-6.09-5.48c0-.58,.47-1.06,1.06-1.06h10.06c.58,0,1.06,.47,1.06,1.06h0Z"/>
  <path class="cls-12" d="M460.53,295.06v7.48c0,3.15-2.56,5.71-5.71,5.71h-10.7c-3.15,0-5.71-2.56-5.71-5.71v-7.48c0-.67,.54-1.21,1.21-1.21h19.69c.67,0,1.21,.54,1.21,1.21h0s0,0,0,0Z"/>
  <path class="cls-10" d="M471.3,268.39c.02,5.7-2.22,11.19-6.21,15.26-1.31,1.97-2.06,4.26-2.17,6.63,0,4.83-3.09,5.9-3.22,5.94-.12,.04-.25,.06-.38,.06h-19.37c-.17,0-.34-.04-.5-.11-.7-.32-3-1.69-3-5.85v-.27c0-2.43,0-3.56-1.52-5.37-9-8.03-9.78-21.84-1.75-30.83,8.03-9,21.84-9.78,30.83-1.75,4.64,4.14,7.3,10.07,7.3,16.3h0Zm13.69,.97h-9.38c-.67,0-1.21-.55-1.21-1.22,0-.67,.54-1.21,1.21-1.21h9.38c.67,0,1.21,.55,1.21,1.22,0,.67-.54,1.21-1.21,1.21Zm-17.71-18.87c-.67,0-1.21-.55-1.21-1.22,0-.32,.13-.63,.35-.86l6.75-6.75c.47-.48,1.24-.48,1.72,0s.48,1.24,0,1.72h0s-6.76,6.75-6.76,6.75c-.23,.23-.53,.36-.85,.36h0Zm-43.55,18.87h-9.38c-.67,0-1.21-.55-1.21-1.22,0-.67,.54-1.21,1.21-1.21h9.38c.67,0,1.21,.55,1.21,1.22,0,.67-.54,1.21-1.21,1.21Zm8.33-18.87c-.32,0-.63-.13-.86-.36l-6.75-6.75c-.48-.47-.48-1.24,0-1.72,.47-.48,1.24-.48,1.72,0h0s6.75,6.75,6.75,6.75c.47,.47,.47,1.24,0,1.72-.23,.23-.54,.36-.86,.36h0Zm17.82-7.27c-.67,0-1.21-.54-1.21-1.21v-9.38c0-.67,.54-1.21,1.21-1.21s1.21,.54,1.21,1.21v9.38c0,.67-.54,1.21-1.21,1.21h0Z"/>
  <path class="cls-3" d="M466.55,269.27c-.45,0-.81-.36-.81-.81h0c-.01-8.84-7.17-16-16.01-16.01-.45,0-.81-.37-.81-.81,0-.44,.36-.8,.81-.81,9.73,.01,17.62,7.9,17.63,17.63,0,.45-.36,.81-.81,.81h0Z"/>
  <path class="cls-12" d="M449.67,327.68c-30.68,0-55.56-24.87-55.56-55.56s24.87-55.56,55.56-55.56,55.56,24.87,55.56,55.56h0c-.03,30.67-24.89,55.52-55.56,55.56Zm0-107.32c-28.59,0-51.76,23.17-51.76,51.76s23.17,51.76,51.76,51.76,51.76-23.17,51.76-51.76c-.03-28.57-23.19-51.73-51.76-51.76Z"/>
</svg>