<?xml version="1.0" encoding="UTF-8"?>
<svg id="BusinessTasklist" xmlns="http://www.w3.org/2000/svg" viewBox="0 0 1000 1000">
  <defs>
    <style>
      .cls-1, .cls-2, .cls-3, .cls-4, .cls-5, .cls-6 {
        fill-rule: evenodd;
      }

      .cls-1, .cls-7 {
        fill: #00e5ff;
      }

      .cls-8 {
        fill: #fff;
      }

      .cls-2, .cls-9 {
        fill: #ff4081;
      }

      .cls-10 {
        fill: #ef96b4;
      }

      .cls-3 {
        fill: #e5e5e5;
      }

      .cls-4 {
        fill: #e91d62;
      }

      .cls-5, .cls-11 {
        fill: #651fff;
      }

      .cls-12 {
        fill: #46b0bc;
      }

      .cls-13, .cls-6 {
        fill: #fa2f74;
      }

      .cls-14 {
        fill: #f1f1f1;
      }
    </style>
  </defs>
  <path class="cls-14" d="M292.41,273.1c0-14.14,11.46-25.6,25.6-25.6h368.87c14.14,0,25.6,11.46,25.6,25.6V806.02c0,14.14-11.46,25.6-25.6,25.6H318c-14.14,0-25.6-11.46-25.6-25.6V273.1Z"/>
  <path class="cls-6" d="M221.06,86.53c0-5.82,4.71-10.53,10.53-10.53h34.5c5.81,0,10.53,4.71,10.53,10.53h0c0,4.76,3.22,8.88,7.71,10.46,12.59,4.43,24.1,11.16,34.03,19.68,3.62,3.11,8.8,3.83,12.93,1.45h0c5.05-2.91,11.5-1.18,14.41,3.86l17.24,29.85c2.91,5.04,1.18,11.48-3.86,14.39h0c-4.12,2.38-6.08,7.22-5.21,11.9,1.19,6.38,1.8,12.95,1.8,19.67s-.62,13.29-1.8,19.67c-.87,4.68,1.09,9.52,5.21,11.9h0c5.04,2.91,6.76,9.35,3.86,14.39l-17.24,29.85c-2.91,5.05-9.36,6.77-14.41,3.86h0c-4.13-2.38-9.31-1.66-12.93,1.45-9.93,8.52-21.44,15.24-34.03,19.68-4.49,1.58-7.71,5.7-7.71,10.46h0c0,5.82-4.71,10.53-10.53,10.53h-34.5c-5.82,0-10.53-4.71-10.53-10.53h0c0-4.76-3.22-8.88-7.71-10.46-12.59-4.43-24.1-11.16-34.03-19.68-3.62-3.11-8.8-3.83-12.93-1.45h0c-5.04,2.91-11.5,1.18-14.41-3.86l-17.24-29.85c-2.91-5.04-1.18-11.48,3.86-14.39h0c4.12-2.38,6.08-7.22,5.21-11.9-1.19-6.38-1.81-12.95-1.81-19.67s.62-13.29,1.81-19.67c.87-4.68-1.09-9.52-5.21-11.9h0c-5.04-2.91-6.77-9.35-3.86-14.39l17.24-29.85c2.91-5.05,9.36-6.77,14.41-3.86h0c4.13,2.38,9.31,1.66,12.93-1.45,9.93-8.52,21.44-15.24,34.03-19.68,4.49-1.58,7.71-5.7,7.71-10.46h0Zm88.74,111.27c0,34.32-27.26,62.14-60.9,62.14s-60.9-27.82-60.9-62.14,27.26-62.14,60.9-62.14,60.9,27.82,60.9,62.14Z"/>
  <path class="cls-2" d="M488.26,134.28c1.71-2.84,5.4-3.75,8.23-2.04l16.83,10.15c2.84,1.71,3.75,5.4,2.04,8.23h0c-1.4,2.32-1.04,5.28,.68,7.37,4.84,5.87,8.48,12.53,10.82,19.61,.85,2.58,3.17,4.46,5.89,4.51h0c3.32,.06,5.96,2.8,5.89,6.12l-.37,19.63c-.06,3.31-2.8,5.95-6.11,5.89h0c-2.71-.05-5.09,1.73-6.04,4.27-1.3,3.46-2.93,6.85-4.91,10.13-1.98,3.28-4.21,6.3-6.66,9.06-1.8,2.03-2.27,4.97-.96,7.34h0c1.6,2.9,.55,6.55-2.35,8.15l-17.19,9.5c-2.91,1.6-6.56,.55-8.16-2.35h0c-1.31-2.38-4.06-3.55-6.74-3.1-7.35,1.23-14.94,1.13-22.39-.41-2.66-.55-5.44,.51-6.84,2.84h0c-1.71,2.84-5.4,3.75-8.23,2.04l-16.83-10.15c-2.84-1.71-3.75-5.4-2.04-8.23h0c1.4-2.32,1.04-5.28-.69-7.37-4.84-5.87-8.48-12.53-10.82-19.61-.85-2.58-3.17-4.46-5.89-4.51h0c-3.32-.06-5.96-2.8-5.89-6.12l.37-19.63c.06-3.31,2.8-5.95,6.11-5.89h0c2.71,.05,5.09-1.73,6.04-4.27,1.3-3.46,2.93-6.85,4.91-10.13,1.98-3.28,4.21-6.3,6.66-9.06,1.8-2.03,2.27-4.97,.96-7.34h0c-1.6-2.9-.55-6.55,2.35-8.15l17.19-9.49c2.91-1.6,6.56-.55,8.17,2.35h0c1.31,2.38,4.06,3.55,6.73,3.1,7.35-1.23,14.94-1.13,22.39,.41,2.66,.55,5.44-.51,6.84-2.84h0Zm10.3,80.22c-9.81,16.28-30.97,21.52-47.24,11.71-16.28-9.81-21.52-30.97-11.71-47.24,9.81-16.28,30.97-21.52,47.24-11.71,16.28,9.81,21.52,30.97,11.71,47.24Z"/>
  <path class="cls-1" d="M633.37,147.75c1.51-.79,3.37-.21,4.16,1.3l4.7,8.95c.79,1.51,.21,3.37-1.3,4.16h0c-1.23,.65-1.86,2.04-1.66,3.43,.56,3.87,.39,7.77-.47,11.5-.31,1.36,.21,2.8,1.39,3.55h0c1.44,.91,1.87,2.82,.96,4.26l-5.39,8.54c-.91,1.44-2.82,1.87-4.26,.96h0c-1.18-.74-2.7-.59-3.8,.27-1.49,1.18-3.11,2.23-4.86,3.15-1.74,.92-3.53,1.65-5.35,2.21-1.33,.41-2.32,1.58-2.38,2.97h0c-.07,1.7-1.5,3.03-3.21,2.96l-10.09-.4c-1.7-.07-3.03-1.51-2.96-3.21h0c.06-1.4-.84-2.64-2.14-3.16-3.56-1.42-6.87-3.48-9.74-6.15-1.02-.95-2.53-1.22-3.76-.58h0c-1.51,.79-3.37,.21-4.16-1.3l-4.7-8.95c-.79-1.51-.21-3.37,1.3-4.16h0c1.23-.65,1.86-2.04,1.67-3.42-.57-3.87-.39-7.77,.47-11.5,.31-1.36-.21-2.8-1.39-3.55h0c-1.44-.91-1.87-2.82-.96-4.26l5.4-8.54c.91-1.44,2.82-1.87,4.26-.96h0c1.18,.75,2.7,.59,3.8-.27,1.49-1.18,3.11-2.23,4.85-3.15,1.74-.92,3.53-1.65,5.35-2.21,1.33-.41,2.32-1.58,2.38-2.97h0c.07-1.7,1.51-3.03,3.21-2.96l10.09,.4c1.7,.07,3.03,1.51,2.96,3.21h0c-.06,1.4,.84,2.64,2.14,3.16,3.56,1.42,6.87,3.48,9.74,6.15,1.02,.95,2.53,1.22,3.76,.58h0Zm-16.84,38.02c-8.65,4.54-19.35,1.21-23.9-7.44-4.55-8.65-1.21-19.35,7.44-23.9,8.65-4.54,19.35-1.21,23.9,7.44,4.54,8.65,1.21,19.35-7.44,23.9Z"/>
  <path class="cls-2" d="M186.24,650.38c1.39-2.3,4.37-3.04,6.67-1.65l13.63,8.22c2.3,1.38,3.04,4.37,1.65,6.67h0c-1.13,1.88-.84,4.28,.55,5.98,3.92,4.75,6.87,10.15,8.76,15.88,.69,2.09,2.57,3.61,4.77,3.65h0c2.69,.05,4.83,2.27,4.77,4.96l-.3,15.9c-.05,2.68-2.27,4.82-4.95,4.77h0c-2.2-.04-4.12,1.41-4.9,3.46-1.05,2.8-2.37,5.55-3.97,8.21-1.6,2.66-3.41,5.1-5.4,7.34-1.46,1.64-1.84,4.02-.78,5.95h0c1.3,2.35,.45,5.31-1.9,6.6l-13.92,7.69c-2.35,1.3-5.31,.44-6.61-1.91h0c-1.06-1.93-3.29-2.88-5.46-2.51-5.95,1-12.1,.91-18.14-.33-2.15-.44-4.41,.42-5.54,2.3h0c-1.39,2.3-4.37,3.04-6.67,1.66l-13.63-8.22c-2.3-1.39-3.04-4.37-1.65-6.67h0c1.13-1.88,.84-4.28-.55-5.97-3.92-4.75-6.87-10.15-8.76-15.88-.69-2.09-2.57-3.61-4.77-3.65h0c-2.69-.05-4.83-2.27-4.77-4.96l.3-15.9c.05-2.68,2.27-4.82,4.95-4.77h0c2.2,.04,4.12-1.4,4.9-3.46,1.05-2.8,2.37-5.55,3.97-8.2s3.41-5.1,5.4-7.34c1.46-1.64,1.84-4.02,.78-5.95h0c-1.3-2.35-.45-5.31,1.9-6.6l13.92-7.69c2.35-1.3,5.31-.45,6.61,1.91h0c1.06,1.93,3.29,2.87,5.46,2.51,5.95-1,12.1-.91,18.14,.33,2.15,.44,4.41-.42,5.54-2.3h0Zm8.35,64.98c-7.95,13.19-25.08,17.43-38.27,9.48-13.19-7.95-17.43-25.08-9.48-38.27,7.95-13.19,25.08-17.43,38.27-9.48,13.19,7.95,17.43,25.09,9.48,38.27Z"/>
  <path class="cls-8" d="M270.04,253.22c0-14.14,11.46-25.6,25.6-25.6h368.88c14.14,0,25.6,11.46,25.6,25.6V786.14c0,14.14-11.46,25.6-25.6,25.6H295.63c-14.14,0-25.6-11.46-25.6-25.6V253.22Z"/>
  <path class="cls-5" d="M267.48,253.22c0-15.55,12.61-28.16,28.16-28.16h368.88c15.55,0,28.16,12.61,28.16,28.16V786.14c0,15.55-12.61,28.16-28.16,28.16H295.63c-15.55,0-28.16-12.61-28.16-28.16V253.22Zm28.16-23.04c-12.72,0-23.04,10.31-23.04,23.04V786.14c0,12.72,10.31,23.03,23.04,23.03h368.88c12.72,0,23.03-10.31,23.03-23.03V253.22c0-12.72-10.31-23.04-23.03-23.04H295.63Z"/>
  <path class="cls-11" d="M359.52,227.62h243.59l-9.4,26.3c-1.82,5.09-6.64,8.49-12.05,8.49h-200.7c-5.41,0-10.23-3.4-12.05-8.49l-9.39-26.3Z"/>
  <path class="cls-3" d="M533.33,313.19h79.91v79.91h-79.91v-79.91Zm12.8,12.8v54.31h54.31v-54.31h-54.31Z"/>
  <path class="cls-7" d="M344.6,312.13h124.28v420.07h-124.28V312.13Z"/>
  <path class="cls-3" d="M533.33,482.21h79.91v79.91h-79.91v-79.91Zm12.8,12.8v54.31h54.31v-54.31h-54.31Zm-12.8,156.22h79.91v79.91h-79.91v-79.91Zm12.8,12.8v54.32h54.31v-54.32h-54.31Z"/>
  <path class="cls-6" d="M785.48,215.77c1.8-8.29,9.98-13.55,18.27-11.75l145.32,31.56c8.29,1.8,13.55,9.98,11.75,18.27l-45.36,208.86c-1.8,8.29-9.98,13.55-18.27,11.75l-145.32-31.56c-8.29-1.8-13.55-9.98-11.75-18.27l45.36-208.86Zm17.18-6.75c-5.53-1.2-10.98,2.31-12.18,7.83l-45.36,208.86c-1.2,5.53,2.31,10.98,7.83,12.18l145.32,31.56c5.53,1.2,10.98-2.3,12.18-7.83l45.36-208.86c1.2-5.53-2.3-10.98-7.83-12.18l-145.32-31.56Z"/>
  <path class="cls-7" d="M91.71,341.96l155.96,57.47-84.06,228.11L7.64,570.07l84.06-228.11Z"/>
  <path class="cls-12" d="M108.85,372.98l104.71,38.6-18.18,49.31-104.71-38.6,18.18-49.31Zm36.36,90.72l42.93,15.82-17.61,47.78-42.93-15.83,17.61-47.77Zm-24.37,66.13l42.93,15.83-17.61,47.78-42.93-15.83,17.61-47.78Zm-36.97-87.65l40.7,15.01-17.61,47.77-40.7-15,17.61-47.78Zm-24.37,66.13l40.7,15-17.61,47.78-40.7-15.01,17.61-47.77Z"/>
  <path class="cls-7" d="M695.07,620.35h54.68v111.85h-54.68v-111.85Z"/>
  <path class="cls-9" d="M777.1,548.26h54.69v183.93h-54.69v-183.93Z"/>
  <path class="cls-13" d="M864.09,583.06h54.69v149.13h-54.69v-149.13Z"/>
  <path class="cls-11" d="M508.65,228.86c0,15.79-12.8,28.58-28.58,28.58s-28.59-12.8-28.59-28.58,12.8-28.58,28.59-28.58,28.58,12.8,28.58,28.58Z"/>
  <path class="cls-10" d="M165.64,730.96l-65.1,197.6c-3.71,11.26-3.4,23.45,.88,34.5l8.3,21.44H241.45l-23.11-37.66c-6.72-10.94-9.08-23.99-6.59-36.59,8.75-44.19,22.48-112.27,28.46-137.02,8.7-36.04,19.88-32.31,34.8-63.38,14.91-31.07,18.64-32.31,11.19-39.77-5.97-5.97-13.26,2.49-16.16,7.46,2.49-22.37-3.73-38.53-22.37-44.74-18.64-6.21-32.31-8.7-47.23-3.73-14.91,4.97-24.86,31.07-27.34,55.92-1.99,19.89-5.8,38.94-7.46,45.99Zm507.74,106.24l-73.97,129.32,40.99,17.97h94.45l63.52-129.56c7.16-14.6,6.96-31.72-.54-46.15l-69.32-133.36c-7.82-14.72-23.74-45.94-24.87-53.08-5.06-30.66-10.07-51.29-22.94-69.12-10.29-14.26-24.36-12.54-30.1-9.9-11.61-3.41-19.61,3.47-22.17,7.33-10.98-.32-16.46,8.44-17.83,12.86l-25.58-36.89c-3.88-5.9-13.57-16.16-21.31-10.09-7.75,6.07-6.16,13.03-4.41,15.74l24.69,44.3-3.03,25.01c-1.17,9.62,2.44,20.02,8.78,27.36,2.5,2.9,5.53,6.45,9.15,10.78,14,16.71,25.83,21.06,29.99,21.15l48.23,133.52c5.1,14.12,3.74,29.77-3.71,42.81Z"/>
  <path class="cls-7" d="M589.6,944.05l-26.27,40.44h114.34l-88.07-40.44Z"/>
  <path class="cls-1" d="M635.57,325.92l-63.01,47.94-19.76-34.97,11.14-6.3,12.55,22.2,51.33-39.06,7.75,10.19Z"/>
  <path class="cls-13" d="M737.3,238.91c-1.36-6.94,3.16-13.66,10.1-15.02l145.93-28.6c6.94-1.36,13.66,3.16,15.02,10.1l41.11,209.74c1.36,6.94-3.16,13.66-10.1,15.02l-145.93,28.6c-6.94,1.36-13.66-3.16-15.02-10.1l-41.11-209.74Z"/>
  <path class="cls-4" d="M888.48,255.19l-112.31,22.52-1.01-5.02,112.31-22.52,1.01,5.02Zm8.53,42.55l-112.31,22.52-1.01-5.02,112.31-22.52,1.01,5.02Zm8.53,42.55l-112.31,22.52-1.01-5.02,112.31-22.52,1.01,5.02Zm8.37,41.72l-112.31,22.52-1.01-5.02,112.31-22.52,1.01,5.02Z"/>
  <path class="cls-5" d="M4,984.49c0-1.41,1.15-2.56,2.56-2.56H994.59c1.41,0,2.56,1.15,2.56,2.56s-1.15,2.56-2.56,2.56H6.56c-1.41,0-2.56-1.15-2.56-2.56Z"/>
</svg>