<?xml version="1.0" encoding="UTF-8"?>
<svg id="Indianfemalereadingemailsinhercomputer" xmlns="http://www.w3.org/2000/svg" xmlns:xlink="http://www.w3.org/1999/xlink" viewBox="0 0 1000 1000">
  <defs>
    <style>
      .cls-1 {
        fill: #fff;
      }

      .cls-2 {
        fill: #b02353;
      }

      .cls-3 {
        fill: #8d7cb1;
      }

      .cls-4 {
        fill: #a5a5a5;
      }

      .cls-5 {
        fill: #2d0682;
      }

      .cls-6 {
        fill: #935067;
      }

      .cls-7 {
        fill: #f97aa5;
      }

      .cls-8 {
        fill: #ff4081;
      }

      .cls-9 {
        fill: #020008;
      }

      .cls-10 {
        fill: #b7a2e6;
      }

      .cls-11 {
        fill: #e5e1e2;
      }

      .cls-12 {
        fill: #7c2442;
      }

      .cls-13 {
        fill: #0c0716;
      }

      .cls-14 {
        fill: #e17499;
      }

      .cls-15 {
        clip-path: url(#clippath);
      }

      .cls-16 {
        fill: #f3cad8;
      }

      .cls-17 {
        fill: #d64b7a;
      }

      .cls-18 {
        fill: #661a34;
      }

      .cls-19 {
        fill: none;
      }

      .cls-20 {
        fill: #f62b70;
      }

      .cls-21 {
        fill: #00e5ff;
      }

      .cls-22 {
        fill: #ff558f;
      }

      .cls-23 {
        fill: #c3869b;
      }

      .cls-24 {
        fill: #dd5e89;
      }

      .cls-25 {
        fill: #9d3659;
      }

      .cls-26 {
        fill: #651fff;
      }

      .cls-27 {
        fill: #fcfcfc;
      }
    </style>
    <clipPath id="clippath">
      <path class="cls-19" d="M276,348.31l85.57,.39,25.05,27.56v-27.56h32.1c3.49,0,6.32-2.83,6.32-6.32v-80.9c0-3.49-2.83-6.32-6.32-6.32h-142.69c-3.49,0-6.32,2.83-6.32,6.32v80.51c0,3.48,2.81,6.3,6.29,6.32Z"/>
    </clipPath>
  </defs>
  <path class="cls-21" d="M140.78,585.26c30.14,140.02,334.75,362.27,429.35,172.86,49.8-99.7,202.07-246.21,320.19-334.21,114.86-85.57-222.37-217.42-429.35-172.86-206.98,44.56-350.33,194.19-320.19,334.21Z"/>
  <rect class="cls-26" x="269.71" y="406.97" width="222.24" height="133.13" rx="6.32" ry="6.32"/>
  <circle class="cls-11" cx="382.7" cy="529.55" r="5.92"/>
  <path class="cls-21" d="M947.75,389.47c-4.18,8.63-11.39,16.83-21.6,24.43l-1.26-1.69c23.67-17.63,30.65-37.63,20.76-59.43-18.08-39.81-91.46-81.9-191.52-109.82-105.06-29.32-216.98-36.24-299.37-18.5-226.12,48.68-383.33,212.58-350.43,365.37l-2.06,.44c-33.14-153.92,124.79-318.95,352.05-367.87,82.71-17.8,195-10.88,300.38,18.53,100.64,28.09,174.54,70.61,192.87,110.98,5.91,13.03,5.92,25.7,.18,37.56Z"/>
  <path class="cls-25" d="M110.5,776.07c-2.08-3.46-50.91-84.85-58.81-105.91l1.97-.74c7.83,20.89,58.14,104.73,58.65,105.57l-1.8,1.09Z"/>
  <path class="cls-25" d="M69.72,625.45c-2.13,5.27-3.76,10.73-4.86,16.3-1.13,5.46-1.96,10.98-2.49,16.53-.54,5.55-.77,11.12-.68,16.7,.03,5.68,.61,11.35,1.72,16.92,2.14-5.27,3.77-10.72,4.87-16.3,1.13-5.46,1.96-10.98,2.47-16.53,.53-5.55,.75-11.12,.67-16.7-.03-5.68-.61-11.35-1.71-16.92Zm18.57,25.39c-2.59,4.91-4.71,10.05-6.31,15.37-1.62,5.19-2.94,10.47-3.96,15.82-1.04,5.34-1.77,10.74-2.19,16.16-.48,5.53-.42,11.09,.18,16.61,2.6-4.9,4.72-10.05,6.32-15.37,1.62-5.19,2.94-10.48,3.95-15.82,1.03-5.34,1.75-10.74,2.18-16.16,.48-5.53,.42-11.09-.17-16.61Zm10.23,29.55c-2.28,4.56-4.08,9.35-5.37,14.28-1.3,4.81-2.3,9.69-3.01,14.62-.71,4.93-1.12,9.9-1.22,14.88-.15,5.1,.25,10.2,1.17,15.22,2.29-4.56,4.1-9.34,5.38-14.28,1.3-4.81,2.3-9.69,2.99-14.62,.71-4.93,1.11-9.9,1.2-14.88,.14-5.1-.24-10.2-1.16-15.22Zm12.88,29.5c-2.29,3.82-4.12,7.9-5.45,12.16-1.33,4.11-2.36,8.31-3.09,12.56-.75,4.25-1.18,8.55-1.31,12.87-.18,4.45,.18,8.91,1.07,13.28,2.3-3.82,4.13-7.9,5.46-12.15,1.33-4.11,2.36-8.31,3.08-12.56,.74-4.25,1.17-8.56,1.3-12.87,.18-4.45-.18-8.91-1.06-13.28Zm11.37,18.44c-2.34,3.31-4.27,6.9-5.75,10.67-1.45,3.61-2.66,7.3-3.61,11.07-.95,3.74-1.68,7.53-2.18,11.35-.24,1.93-.45,3.84-.6,5.8-.07,1.99-.29,3.97-.64,5.94,.49-.26,.95-.56,1.4-.88l1.13-1.14c.72-.78,1.39-1.61,1.98-2.48,1.15-1.69,2.17-3.46,3.05-5.31,1.71-3.59,3.05-7.34,4-11.2,.97-3.82,1.6-7.73,1.89-11.66,.34-4.06,.11-8.16-.68-12.16Zm-64.09-45.51c-3.82-4.19-8.12-7.92-12.81-11.11-4.52-3.14-9.25-5.96-14.16-8.44-4.9-2.5-9.97-4.64-15.18-6.42-5.35-1.89-10.9-3.15-16.54-3.73,3.81,4.2,8.11,7.93,12.8,11.12,4.52,3.14,9.25,5.96,14.16,8.43,4.91,2.49,9.98,4.63,15.18,6.41,5.35,1.89,10.89,3.15,16.53,3.75Zm12.58,23.5c-4.89-4-10.18-7.46-15.8-10.34-5.45-2.86-11.08-5.38-16.85-7.54-5.76-2.18-11.65-3.99-17.64-5.43-6.12-1.53-12.39-2.41-18.7-2.61,4.88,4.01,10.17,7.48,15.79,10.35,5.45,2.86,11.08,5.38,16.85,7.53,5.76,2.17,11.66,3.98,17.65,5.42,6.12,1.53,12.39,2.41,18.7,2.62Zm14.81,26.12c-4.35-3.86-9.13-7.21-14.24-9.98-4.94-2.74-10.06-5.15-15.33-7.2-5.26-2.07-10.65-3.77-16.15-5.1-5.64-1.43-11.43-2.19-17.24-2.29,4.34,3.87,9.12,7.23,14.23,10,4.94,2.75,10.06,5.15,15.33,7.19,5.26,2.06,10.66,3.75,16.15,5.08,5.64,1.42,11.42,2.19,17.24,2.3Zm11.7,20.1c-3.79-3.28-7.99-6.05-12.51-8.24-4.32-2.15-8.8-3.95-13.4-5.39-4.6-1.45-9.3-2.53-14.07-3.23-4.95-.78-9.99-.9-14.97-.35,3.78,3.29,7.99,6.07,12.5,8.25,4.32,2.15,8.8,3.95,13.4,5.37,4.6,1.44,9.31,2.52,14.08,3.22,4.95,.78,9.99,.9,14.97,.37Z"/>
  <path class="cls-25" d="M107.01,770.57c-4.17-4-8.78-7.5-13.75-10.44-4.8-2.9-9.79-5.48-14.93-7.7-5.14-2.24-10.43-4.12-15.83-5.63-5.55-1.61-11.26-2.57-17.03-2.86,4.16,4.01,8.77,7.52,13.74,10.46,4.8,2.91,9.79,5.48,14.94,7.69,5.14,2.23,10.44,4.11,15.84,5.62,5.54,1.61,11.26,2.57,17.02,2.88Zm-52.42-97.76c.77-5.61,.63-11.31-.41-16.88-.92-5.25-2.36-10.4-4.3-15.36-1.93-4.97-4.36-9.73-7.25-14.2-3.02-4.8-6.79-9.08-11.18-12.67-.79,5.61-.65,11.32,.39,16.89,.91,5.25,2.36,10.39,4.32,15.35,1.94,4.96,4.38,9.72,7.27,14.2,3.02,4.79,6.79,9.07,11.16,12.67Z"/>
  <path class="cls-18" d="M118.23,779.51c-.02-1.4-2.58-140.77-29.39-183.23l1.78-1.12c27.13,42.95,29.62,178.56,29.72,184.31l-2.11,.03Z"/>
  <path class="cls-18" d="M98.44,614.53c-.83-6.29-1.05-12.65-.63-18.98,.35-6.17,1.03-12.32,2.05-18.41,.98-6.07,2.32-12.09,3.89-18.05,1.57-6,3.55-11.78,5.67-17.93,.6,1.53,1.05,3.11,1.36,4.72,.34,1.58,.59,3.18,.74,4.8,.33,3.16,.47,6.34,.43,9.52-.09,6.25-.67,12.49-1.71,18.66-1.02,6.15-2.46,12.22-4.32,18.17-1.83,6.1-4.34,11.97-7.48,17.51Zm-33.34-85.88c4.66,4.5,8.66,9.63,11.87,15.26,3.13,5.33,5.79,10.93,7.96,16.72,2.19,5.79,3.86,11.75,5,17.83,1.27,6.35,1.62,12.86,1.04,19.31-4.68-4.49-8.68-9.62-11.89-15.25-3.13-5.33-5.79-10.93-7.94-16.73-2.17-5.79-3.84-11.76-4.98-17.84-1.27-6.35-1.63-12.85-1.06-19.3Zm-22.36,34.56c5.53,4.44,10.76,9.26,15.64,14.41,4.83,5.01,9.44,10.13,13.96,15.28l13.41,15.39c2.25,2.52,4.52,5,6.92,7.35,2.37,2.49,5.14,4.58,8.18,6.18-1.86,.32-3.76,.28-5.6-.14-1.85-.37-3.66-.94-5.39-1.7-3.39-1.49-6.61-3.34-9.61-5.51-5.82-4.26-11.13-9.17-15.83-14.64-4.67-5.36-8.88-11.11-12.58-17.18-3.8-6.09-6.86-12.62-9.1-19.44Zm0,34.56c6.82,3.41,13.32,7.41,19.44,11.96,6.05,4.43,11.87,9.16,17.44,14.18,5.58,5.01,10.9,10.3,15.93,15.86,5.17,5.61,9.82,11.66,13.91,18.1-6.83-3.39-13.34-7.39-19.45-11.95-6.05-4.42-11.87-9.16-17.43-14.19-5.57-5.01-10.89-10.31-15.92-15.87-5.16-5.61-9.82-11.66-13.92-18.09Zm2.27,27.12c6.87,3.2,13.44,7,19.64,11.36,6.13,4.24,12.04,8.79,17.7,13.63,5.67,4.83,11.09,9.95,16.23,15.35,5.28,5.44,10.05,11.34,14.27,17.64-6.88-3.19-13.45-6.98-19.65-11.35-6.13-4.24-12.04-8.79-17.69-13.64-5.67-4.84-11.08-9.96-16.22-15.36-5.27-5.44-10.05-11.34-14.28-17.63Zm1.52,28.99c6.84,2.57,13.42,5.77,19.67,9.54,6.17,3.66,12.14,7.64,17.89,11.94,5.76,4.28,11.28,8.87,16.53,13.75,5.4,4.92,10.33,10.33,14.73,16.16-6.84-2.56-13.43-5.75-19.68-9.53-6.17-3.66-12.14-7.64-17.88-11.95-5.75-4.29-11.27-8.88-16.52-13.76-5.4-4.92-10.33-10.33-14.74-16.15Zm-1.52,21.03c7.15,2.88,14.04,6.37,20.58,10.45,6.47,3.96,12.74,8.24,18.78,12.83,6.05,4.58,11.86,9.46,17.41,14.63,5.69,5.21,10.9,10.91,15.59,17.03-7.16-2.87-14.05-6.36-20.59-10.44-6.47-3.96-12.74-8.24-18.77-12.84-6.04-4.58-11.85-9.47-17.4-14.64-5.68-5.21-10.9-10.9-15.6-17.02Zm-5.3,19.7c7.45,3.46,14.64,7.45,21.52,11.94,6.83,4.37,13.44,9,19.88,13.82,6.46,4.8,12.75,9.8,18.92,14.97,6.24,5.12,12.13,10.46,18.58,15.74-4.14-.68-8.19-1.86-12.05-3.52-3.82-1.6-7.56-3.4-11.19-5.39-7.14-4-14.01-8.47-20.56-13.38-6.52-4.89-12.76-10.15-18.68-15.76-6.03-5.63-11.53-11.8-16.43-18.43Zm-6.44,20.46c8.05,3.13,15.86,6.84,23.36,11.1,7.46,4.16,14.7,8.62,21.78,13.32,7.08,4.7,13.98,9.63,20.72,14.81,3.37,2.6,6.7,5.24,10,7.93,3.19,2.83,6.59,5.43,10.15,7.77-2.24,0-4.46-.38-6.56-1.13-2.12-.63-4.17-1.39-6.2-2.18-4.05-1.61-7.96-3.45-11.8-5.4-7.62-3.92-15.01-8.28-22.13-13.06-7.12-4.74-14-9.83-20.6-15.27-6.72-5.44-12.98-11.44-18.71-17.92Zm71.7-76.47c.34-6.84,1.35-13.62,3.02-20.26,1.57-6.52,3.52-12.94,5.82-19.24,2.29-6.3,4.94-12.47,7.95-18.46,3.01-6.15,6.62-11.99,10.78-17.43-.33,6.84-1.34,13.63-3.01,20.27-1.57,6.52-3.52,12.94-5.84,19.23-2.3,6.3-4.96,12.46-7.96,18.46-3.01,6.15-6.62,11.99-10.76,17.43Zm4.49,23.66c1.29-6.8,3.24-13.46,5.82-19.88,2.47-6.32,5.29-12.49,8.46-18.49,3.15-6.01,6.64-11.83,10.46-17.44,3.84-5.76,8.24-11.13,13.12-16.03-1.28,6.8-3.22,13.47-5.8,19.89-2.47,6.32-5.3,12.49-8.47,18.49-3.16,6-6.65,11.82-10.47,17.43-3.84,5.76-8.23,11.13-13.11,16.04Zm3.4,22.88c2.21-6.9,5.06-13.59,8.51-19.96,3.33-6.29,7-12.39,10.99-18.29,3.97-5.91,8.27-11.59,12.86-17.02,4.63-5.58,9.77-10.72,15.36-15.34-2.2,6.91-5.05,13.59-8.5,19.97-3.33,6.29-7,12.39-11,18.28-3.98,5.9-8.28,11.58-12.87,17.02-4.63,5.58-9.77,10.71-15.35,15.34Zm2.49,25.24c3.47-7.46,7.55-14.63,12.19-21.42,4.53-6.76,9.36-13.27,14.5-19.53,5.12-6.28,10.54-12.31,16.25-18.1,5.74-5.9,11.95-11.32,18.58-16.2-3.46,7.47-7.53,14.64-12.18,21.43-4.53,6.76-9.37,13.27-14.51,19.53-5.13,6.27-10.55,12.3-16.26,18.09-5.74,5.9-11.95,11.32-18.57,16.2Zm2.02,26.18c4.26-7.09,9.08-13.83,14.43-20.14,5.24-6.29,10.75-12.29,16.54-18.02,5.77-5.74,11.82-11.22,18.13-16.42,6.35-5.31,13.12-10.08,20.25-14.28-4.24,7.1-9.07,13.84-14.42,20.15-5.24,6.28-10.75,12.29-16.55,18.01-5.78,5.73-11.83,11.2-18.14,16.41-6.35,5.3-13.12,10.08-20.24,14.29Zm1.23,16.78c4.72-6.12,9.97-11.82,15.68-17.02,5.58-5.17,11.41-10.06,17.48-14.64,6.06-4.6,12.35-8.88,18.84-12.84,6.57-4.08,13.48-7.57,20.66-10.43-4.71,6.13-9.96,11.83-15.67,17.04-5.58,5.17-11.41,10.06-17.49,14.63-6.07,4.59-12.36,8.87-18.85,12.83-6.57,4.08-13.48,7.57-20.65,10.45Zm.67,14.02c5.66-5.59,11.79-10.68,18.32-15.23,6.41-4.55,13.01-8.77,19.8-12.64,6.78-3.89,13.76-7.45,20.92-10.68,7.23-3.32,14.73-6.02,22.42-8.06-5.66,5.6-11.78,10.69-18.31,15.24-6.41,4.55-13.01,8.76-19.81,12.63-6.79,3.88-13.77,7.43-20.93,10.66-7.23,3.32-14.73,6.02-22.41,8.07Zm-.52,9.09c6.8-4.69,13.96-8.82,21.43-12.34,7.35-3.55,14.85-6.71,22.47-9.54,7.62-2.83,15.37-5.31,23.26-7.43,7.96-2.2,16.09-3.74,24.3-4.6-6.79,4.7-13.96,8.84-21.43,12.36-7.35,3.55-14.85,6.73-22.48,9.53-7.62,2.82-15.37,5.31-23.26,7.41-7.96,2.19-16.09,3.74-24.3,4.61Z"/>
  <path class="cls-12" d="M122.54,776.07l-1.8-1.09c.51-.84,50.81-84.68,58.65-105.57l1.97,.74c-7.9,21.07-56.74,102.46-58.81,105.91Z"/>
  <path class="cls-12" d="M163.32,625.45c2.13,5.27,3.76,10.73,4.86,16.3,1.13,5.46,1.96,10.98,2.49,16.53,.54,5.55,.77,11.12,.68,16.7-.03,5.68-.61,11.35-1.72,16.92-2.14-5.27-3.77-10.72-4.87-16.3-1.13-5.46-1.96-10.98-2.47-16.53-.53-5.55-.75-11.12-.67-16.7,.03-5.68,.61-11.35,1.71-16.92Zm-18.57,25.39c2.59,4.91,4.71,10.05,6.31,15.37,1.62,5.19,2.94,10.47,3.96,15.82,1.04,5.34,1.77,10.74,2.19,16.16,.48,5.53,.42,11.09-.18,16.61-2.6-4.9-4.72-10.05-6.32-15.37-1.62-5.19-2.94-10.48-3.95-15.82-1.03-5.34-1.75-10.74-2.18-16.16-.48-5.53-.42-11.09,.17-16.61Zm-10.23,29.55c2.28,4.56,4.08,9.35,5.37,14.28,1.3,4.81,2.3,9.69,3.01,14.62,.71,4.93,1.12,9.9,1.22,14.88,.15,5.1-.25,10.2-1.17,15.22-2.29-4.56-4.1-9.34-5.38-14.28-1.3-4.81-2.3-9.69-2.99-14.62-.71-4.93-1.11-9.9-1.2-14.88-.14-5.1,.24-10.2,1.16-15.22Zm-12.88,29.5c2.29,3.82,4.12,7.9,5.45,12.16,1.33,4.11,2.36,8.31,3.09,12.56,.75,4.25,1.18,8.55,1.31,12.87,.18,4.45-.18,8.91-1.07,13.28-2.3-3.82-4.13-7.9-5.46-12.15-1.33-4.11-2.36-8.31-3.08-12.56-.74-4.25-1.17-8.56-1.3-12.87-.18-4.45,.18-8.91,1.06-13.28Zm-11.37,18.44c2.34,3.31,4.27,6.9,5.75,10.67,1.45,3.61,2.66,7.3,3.61,11.07,.95,3.74,1.68,7.53,2.18,11.35,.24,1.93,.45,3.84,.6,5.8,.07,1.99,.29,3.97,.64,5.94-.49-.26-.95-.56-1.4-.88l-1.13-1.14c-.72-.78-1.39-1.61-1.98-2.48-1.15-1.69-2.17-3.46-3.05-5.31-1.71-3.59-3.05-7.34-4-11.2-.97-3.82-1.6-7.73-1.89-11.66-.34-4.06-.11-8.16,.68-12.16Zm64.09-45.51c3.82-4.19,8.12-7.92,12.81-11.11,4.52-3.14,9.25-5.96,14.16-8.44,4.9-2.5,9.97-4.64,15.18-6.42,5.35-1.89,10.9-3.15,16.54-3.73-3.81,4.2-8.11,7.93-12.8,11.12-4.52,3.14-9.25,5.96-14.16,8.43-4.91,2.49-9.98,4.63-15.18,6.41-5.35,1.89-10.89,3.15-16.53,3.75Zm-12.58,23.5c4.89-4,10.18-7.46,15.8-10.34,5.45-2.86,11.08-5.38,16.85-7.54,5.76-2.18,11.65-3.99,17.64-5.43,6.12-1.53,12.39-2.41,18.7-2.61-4.88,4.01-10.17,7.48-15.79,10.35-5.45,2.86-11.08,5.38-16.85,7.53-5.76,2.17-11.66,3.98-17.65,5.42-6.12,1.53-12.39,2.41-18.7,2.62Zm-14.81,26.12c4.35-3.86,9.13-7.21,14.24-9.98,4.94-2.74,10.06-5.15,15.33-7.2,5.26-2.07,10.65-3.77,16.15-5.1,5.64-1.43,11.43-2.19,17.24-2.29-4.34,3.87-9.12,7.23-14.23,10-4.94,2.75-10.06,5.15-15.33,7.19-5.26,2.06-10.66,3.75-16.15,5.08-5.64,1.42-11.42,2.19-17.24,2.3Zm-11.7,20.1c3.79-3.28,7.99-6.05,12.51-8.24,4.32-2.15,8.8-3.95,13.4-5.39,4.6-1.45,9.3-2.53,14.07-3.23,4.95-.78,9.99-.9,14.97-.35-3.78,3.29-7.99,6.07-12.5,8.25-4.32,2.15-8.8,3.95-13.4,5.37-4.6,1.44-9.31,2.52-14.08,3.22-4.95,.78-9.99,.9-14.97,.37Z"/>
  <path class="cls-12" d="M126.03,770.57c4.17-4,8.78-7.5,13.75-10.44,4.8-2.9,9.79-5.48,14.93-7.7,5.14-2.24,10.43-4.12,15.83-5.63,5.55-1.61,11.26-2.57,17.03-2.86-4.16,4.01-8.77,7.52-13.74,10.46-4.8,2.91-9.79,5.48-14.94,7.69-5.14,2.23-10.44,4.11-15.84,5.62-5.54,1.61-11.26,2.57-17.02,2.88Zm52.42-97.76c-.77-5.61-.63-11.31,.41-16.88,.92-5.25,2.36-10.4,4.3-15.36,1.93-4.97,4.36-9.73,7.25-14.2,3.02-4.8,6.79-9.08,11.18-12.67,.79,5.61,.65,11.32-.39,16.89-.91,5.25-2.36,10.39-4.32,15.35-1.94,4.96-4.38,9.72-7.27,14.2-3.02,4.79-6.79,9.07-11.16,12.67Z"/>
  <path class="cls-14" d="M134.37,835.39h-38.04l-12.24-64.93c-.27-1.4,.64-2.75,2.04-3.02,.16-.03,.32-.05,.48-.05h57.48c1.43,0,2.57,1.17,2.57,2.6,0,.16-.02,.32-.05,.48l-12.24,64.93Z"/>
  <path class="cls-17" d="M145.73,775.15l.88-4.69c.27-1.4-.64-2.75-2.04-3.02-.16-.03-.32-.05-.48-.05h-57.48c-1.43,0-2.57,1.17-2.57,2.6,0,.16,.02,.32,.05,.48l.88,4.69h60.75Z"/>
  <polygon class="cls-17" points="99.37 817 91.34 808.89 99.37 800.78 107.41 808.89 99.37 817"/>
  <polygon class="cls-17" points="115.44 817 107.41 808.89 115.44 800.78 123.48 808.89 115.44 817"/>
  <polygon class="cls-17" points="131.33 817 123.3 808.89 131.33 800.78 139.37 808.89 131.33 817"/>
  <rect class="cls-10" x="0" y="162.51" width="167.86" height="320.56" rx="4.21" ry="4.21"/>
  <rect class="cls-11" x="7.96" y="170.47" width="71.99" height="96.24" rx="4.21" ry="4.21"/>
  <rect class="cls-11" x="87.91" y="170.47" width="71.99" height="96.24" rx="4.21" ry="4.21"/>
  <rect class="cls-11" x="7.96" y="274.67" width="71.99" height="96.24" rx="4.21" ry="4.21"/>
  <rect class="cls-11" x="87.91" y="274.67" width="71.99" height="96.24" rx="4.21" ry="4.21"/>
  <rect class="cls-11" x="7.96" y="378.87" width="71.99" height="96.24" rx="4.21" ry="4.21"/>
  <rect class="cls-11" x="87.91" y="378.87" width="71.99" height="96.24" rx="4.21" ry="4.21"/>
  <path class="cls-10" d="M15.72,246.88c3.56-5.81,7.31-11.48,11.09-17.14,3.76-5.67,7.65-11.24,11.54-16.81,3.93-5.54,7.87-11.08,11.94-16.53l6.11-8.17c2.1-2.68,4.14-5.4,6.3-8.04-1.76,2.92-3.64,5.75-5.45,8.63l-5.63,8.5c-3.76,5.67-7.65,11.24-11.55,16.81-3.94,5.54-7.87,11.08-11.95,16.53-4.05,5.46-8.14,10.9-12.41,16.21Zm9.55,13.31c3.56-5.81,7.31-11.48,11.09-17.14,3.76-5.67,7.65-11.24,11.55-16.81,3.93-5.54,7.87-11.08,11.94-16.53l6.11-8.17c2.1-2.68,4.14-5.4,6.29-8.04-1.76,2.92-3.64,5.75-5.45,8.63l-5.63,8.51c-3.76,5.67-7.65,11.24-11.55,16.81-3.94,5.54-7.87,11.08-11.95,16.53-4.05,5.46-8.13,10.9-12.4,16.21Zm70.36-13.31c3.56-5.81,7.31-11.48,11.09-17.14,3.76-5.67,7.65-11.24,11.55-16.81,3.93-5.54,7.87-11.08,11.94-16.53l6.11-8.17c2.1-2.68,4.14-5.4,6.29-8.04-1.76,2.92-3.64,5.75-5.45,8.63l-5.63,8.5c-3.76,5.67-7.65,11.24-11.55,16.81-3.94,5.54-7.87,11.08-11.95,16.53-4.05,5.46-8.13,10.9-12.41,16.21Zm9.55,13.31c3.56-5.81,7.31-11.48,11.09-17.14,3.76-5.67,7.65-11.24,11.54-16.81,3.93-5.54,7.87-11.08,11.94-16.53l6.11-8.17c2.1-2.68,4.14-5.4,6.3-8.04-1.76,2.92-3.64,5.75-5.45,8.63l-5.63,8.51c-3.76,5.67-7.65,11.24-11.55,16.81-3.94,5.54-7.87,11.08-11.95,16.53-4.05,5.46-8.13,10.9-12.41,16.21ZM15.72,347.37c3.56-5.81,7.31-11.48,11.09-17.14,3.76-5.67,7.65-11.24,11.54-16.81,3.93-5.54,7.87-11.09,11.94-16.53l6.11-8.17c2.1-2.68,4.14-5.4,6.3-8.04-1.76,2.92-3.64,5.75-5.45,8.63l-5.63,8.51c-3.76,5.67-7.65,11.24-11.55,16.81-3.94,5.54-7.87,11.08-11.95,16.53-4.05,5.46-8.14,10.9-12.41,16.21Zm9.55,13.31c3.56-5.81,7.31-11.48,11.09-17.14,3.76-5.67,7.65-11.24,11.55-16.81,3.93-5.54,7.87-11.09,11.94-16.53l6.11-8.17c2.1-2.68,4.14-5.4,6.29-8.04-1.76,2.92-3.64,5.75-5.45,8.63l-5.63,8.5c-3.76,5.67-7.65,11.24-11.55,16.81-3.94,5.54-7.87,11.08-11.95,16.53-4.05,5.46-8.13,10.9-12.4,16.21Zm70.36-13.31c3.56-5.81,7.31-11.48,11.09-17.14,3.76-5.67,7.65-11.24,11.55-16.81,3.93-5.54,7.87-11.09,11.94-16.53l6.11-8.17c2.1-2.68,4.14-5.4,6.29-8.04-1.76,2.92-3.64,5.75-5.45,8.63l-5.63,8.51c-3.76,5.67-7.65,11.24-11.55,16.81-3.94,5.54-7.87,11.08-11.95,16.53-4.05,5.46-8.13,10.9-12.41,16.21Zm9.55,13.31c3.56-5.81,7.31-11.48,11.09-17.14,3.76-5.67,7.65-11.24,11.54-16.81,3.93-5.54,7.87-11.09,11.94-16.53l6.11-8.17c2.1-2.68,4.14-5.4,6.3-8.04-1.76,2.92-3.64,5.75-5.45,8.63l-5.63,8.5c-3.76,5.67-7.65,11.24-11.55,16.81-3.94,5.54-7.87,11.08-11.95,16.53-4.05,5.46-8.13,10.9-12.41,16.21ZM15.72,451.44c3.56-5.81,7.31-11.48,11.09-17.14,3.76-5.67,7.65-11.24,11.54-16.81,3.93-5.54,7.87-11.08,11.94-16.53l6.11-8.17c2.1-2.68,4.14-5.4,6.3-8.04-1.76,2.92-3.64,5.75-5.45,8.63l-5.63,8.5c-3.76,5.67-7.65,11.24-11.55,16.81-3.94,5.54-7.87,11.08-11.95,16.53-4.05,5.46-8.14,10.9-12.41,16.21Zm9.55,13.31c3.56-5.81,7.31-11.48,11.09-17.14,3.76-5.67,7.65-11.24,11.55-16.81,3.93-5.54,7.87-11.08,11.94-16.53l6.11-8.17c2.1-2.68,4.14-5.4,6.29-8.04-1.76,2.92-3.64,5.75-5.45,8.63l-5.63,8.51c-3.76,5.67-7.65,11.24-11.55,16.81-3.94,5.54-7.87,11.08-11.95,16.53-4.05,5.46-8.13,10.9-12.4,16.21Zm70.36-13.31c3.56-5.81,7.31-11.48,11.09-17.14,3.76-5.67,7.65-11.24,11.55-16.81,3.93-5.54,7.87-11.08,11.94-16.53l6.11-8.17c2.1-2.68,4.14-5.4,6.29-8.04-1.76,2.92-3.64,5.75-5.45,8.63l-5.63,8.5c-3.76,5.67-7.65,11.24-11.55,16.81-3.94,5.54-7.87,11.08-11.95,16.53-4.05,5.46-8.13,10.9-12.41,16.21Zm9.55,13.31c3.56-5.81,7.31-11.48,11.09-17.14,3.76-5.67,7.65-11.24,11.54-16.81,3.93-5.54,7.87-11.08,11.94-16.53l6.11-8.17c2.1-2.68,4.14-5.4,6.3-8.04-1.76,2.92-3.64,5.75-5.45,8.63l-5.63,8.51c-3.76,5.67-7.65,11.24-11.55,16.81-3.94,5.54-7.87,11.08-11.95,16.53-4.05,5.46-8.13,10.9-12.41,16.21Z"/>
  <rect class="cls-6" x="714.4" y="198.4" width="256.06" height="528.4"/>
  <path class="cls-22" d="M799.02,447.8h-45.85v-44.54c0-12.66,10.26-22.93,22.93-22.93h0c12.66,0,22.93,10.26,22.93,22.93h0v44.54Z"/>
  <circle class="cls-1" cx="776.89" cy="404.36" r="17.16"/>
  <path class="cls-9" d="M781.78,390.85c-1.17,4.67-2.76,9.19-4.32,13.71l-.25-.72c4.23,2.65,8.47,5.28,12.46,8.33-4.53-2.16-8.8-4.74-13.09-7.3l-.43-.26,.18-.46c1.69-4.48,3.37-8.97,5.46-13.3Z"/>
  <path class="cls-22" d="M794.73,717.38v.89c0,4.71-3.82,8.53-8.53,8.53h-25.63c-4.71,0-8.53-3.82-8.53-8.53v-34.54c0-4.71,3.82-8.53,8.53-8.53h25.63c4.71,0,8.53,3.82,8.53,8.53v33.65Z"/>
  <path class="cls-1" d="M808.86,684h-14.13v5.12h11.57v23.14h-11.57v5.12h14.13c1.41,0,2.56-1.14,2.56-2.55h0v-28.27c0-1.41-1.14-2.56-2.55-2.56h0Z"/>
  <rect class="cls-1" x="773.38" y="692.86" width="10.61" height="10.61" rx="1.71" ry="1.71"/>
  <rect class="cls-16" x="777.48" y="675.19" width="2.4" height="17.67"/>
  <path class="cls-14" d="M701.71,185.08V835.39h12.69v-16.02h256.06v16.02h12.69V185.08h-281.45Zm12.69,13.32h124.42v130.39h-124.42V198.4Zm0,140.82h124.42v108.58h-124.42v-108.58Zm0,119.89h124.42v124.42h-124.42v-124.42Zm0,135.73h124.42v131.96h-124.42v-131.96Zm256.06,213.77h-256.06v-68.24h256.06v68.24Zm0-81.82h-123.73v-131.96h123.73v131.96Zm0-143.27h-123.73v-124.42h123.73v124.42Zm0-135.73h-123.73v-108.58h123.73v108.58Zm0-119.01h-123.73V198.4h123.73v130.39Z"/>
  <rect class="cls-6" x="714.4" y="737.23" width="256.06" height="71.38"/>
  <rect class="cls-14" x="745.82" y="770.16" width="43.55" height="8.67"/>
  <rect class="cls-14" x="895.5" y="770.16" width="43.55" height="8.67"/>
  <path class="cls-1" d="M876.25,315.89h77.25v11.52h-77.25c-2.82,0-5.11-2.29-5.11-5.11v-1.3c0-2.82,2.29-5.11,5.11-5.11Z"/>
  <path class="cls-20" d="M955.91,327.71c-.02,.59-.51,1.06-1.11,1.04h-80.02c-3.06,0-5.54-3.16-5.54-7.04s2.49-7.04,5.54-7.04h80.02c.59-.02,1.09,.45,1.11,1.04v.82c-.02,.59-.51,1.06-1.11,1.04h-80.02c-2.28,.55-3.68,2.85-3.13,5.13,.37,1.55,1.58,2.76,3.13,3.13h80.02c.59-.02,1.09,.45,1.11,1.04v.82Z"/>
  <path class="cls-1" d="M864.22,301.81h77.25v11.52h-77.25c-2.82,0-5.11-2.29-5.11-5.11v-1.3c0-2.82,2.29-5.11,5.11-5.11Z"/>
  <path class="cls-22" d="M943.89,313.63c-.02,.59-.51,1.06-1.11,1.04h-80.02c-3.06,0-5.54-3.16-5.54-7.04s2.49-7.04,5.54-7.04h80.02c.59-.02,1.09,.45,1.11,1.04v.82c-.02,.59-.51,1.06-1.11,1.04h-80.02c-2.28,.55-3.68,2.85-3.13,5.13,.37,1.55,1.58,2.76,3.13,3.13h80.02c.59-.02,1.09,.45,1.11,1.04v.82Z"/>
  <path class="cls-1" d="M888.84,287.73h77.25v11.52h-77.25c-2.82,0-5.11-2.29-5.11-5.11v-1.3c0-2.82,2.29-5.11,5.11-5.11Z"/>
  <path class="cls-20" d="M968.51,299.54c-.02,.59-.51,1.06-1.11,1.04h-80.02c-3.06,0-5.54-3.16-5.54-7.04s2.49-7.04,5.54-7.04h80.02c.59-.02,1.09,.45,1.11,1.04v.82c-.02,.59-.51,1.06-1.11,1.04h-80.02c-2.28,.55-3.68,2.85-3.13,5.13,.37,1.55,1.58,2.76,3.13,3.13h80.02c.59-.02,1.09,.45,1.11,1.04v.82Z"/>
  <path class="cls-1" d="M941.55,582.2h-77.25v-11.52h77.25c2.82,0,5.11,2.29,5.11,5.11v1.3c0,2.82-2.29,5.11-5.11,5.11h0Z"/>
  <path class="cls-20" d="M861.89,582.49c.02,.59,.51,1.06,1.11,1.04h80.02c3.06,0,5.54-3.16,5.54-7.04s-2.49-7.04-5.54-7.04h-80.02c-.59-.02-1.09,.45-1.11,1.04v.82c.02,.59,.51,1.06,1.11,1.04h80.02c2.28,.55,3.68,2.85,3.13,5.13-.37,1.55-1.58,2.76-3.13,3.13h-80.02c-.59-.02-1.09,.45-1.11,1.04v.82Z"/>
  <path class="cls-1" d="M953.58,568.11h-77.25v-11.52h77.25c2.82,0,5.11,2.29,5.11,5.11v1.3c0,2.82-2.29,5.11-5.11,5.11h0Z"/>
  <path class="cls-22" d="M873.92,568.41c.02,.59,.51,1.06,1.11,1.04h80.02c3.06,0,5.54-3.16,5.54-7.04s-2.49-7.04-5.54-7.04h-80.02c-.59-.02-1.09,.45-1.11,1.04v.82c.02,.59,.51,1.06,1.11,1.04h80.02c2.28,.55,3.68,2.85,3.13,5.13-.37,1.55-1.58,2.76-3.13,3.13h-80.02c-.59-.02-1.09,.45-1.11,1.04v.82Z"/>
  <path class="cls-1" d="M928.96,554.03h-77.25v-11.52h77.25c2.82,0,5.11,2.29,5.11,5.11v1.3c0,2.82-2.29,5.11-5.11,5.11h0Z"/>
  <path class="cls-20" d="M849.29,554.33c.02,.59,.51,1.06,1.11,1.04h80.02c3.06,0,5.54-3.16,5.54-7.04s-2.49-7.04-5.54-7.04h-80.02c-.59-.02-1.09,.45-1.11,1.04v.82c.02,.59,.51,1.06,1.11,1.04h80.02c2.28,.55,3.68,2.85,3.13,5.13-.37,1.55-1.58,2.76-3.13,3.13h-80.02c-.59-.02-1.09,.45-1.11,1.04v.82Z"/>
  <path class="cls-3" d="M837.63,241.32l-11.92,87.47h0l-13.75-1.87h0l11.92-87.47c.11-.79,.83-1.34,1.62-1.23h0s10.89,1.48,10.89,1.48c.79,.11,1.34,.83,1.23,1.62Z"/>
  <rect class="cls-1" x="829.19" y="238.79" width="1.68" height="13.88" transform="translate(474.45 1034.96) rotate(-82.24)"/>
  <rect class="cls-1" x="828.28" y="245.43" width="1.68" height="13.88" transform="translate(467.08 1039.81) rotate(-82.24)"/>
  <rect class="cls-1" x="820.14" y="305.23" width="1.68" height="13.88" transform="translate(400.78 1083.46) rotate(-82.24)"/>
  <rect class="cls-1" x="819.23" y="311.87" width="1.68" height="13.88" transform="translate(393.4 1088.3) rotate(-82.24)"/>
  <path class="cls-20" d="M793.28,240.51v88.28h-13.88v-88.28c0-.8,.65-1.44,1.44-1.44h11c.8,0,1.44,.65,1.44,1.44h0Z"/>
  <rect class="cls-1" x="779.4" y="321.11" width="13.88" height="1.68"/>
  <rect class="cls-1" x="779.4" y="314.4" width="13.88" height="1.68"/>
  <rect class="cls-1" x="779.4" y="254.06" width="13.88" height="1.68"/>
  <rect class="cls-1" x="779.4" y="247.35" width="13.88" height="1.68"/>
  <path class="cls-22" d="M793.26,328.79v-84.25c0-.8,.65-1.44,1.44-1.44h15.82c.8,0,1.44,.65,1.44,1.44h0v84.25h-18.71Z"/>
  <rect class="cls-1" x="793.26" y="318.24" width="18.71" height="1.68"/>
  <rect class="cls-1" x="796.58" y="247.92" width="12.07" height="40.03"/>
  <path class="cls-22" d="M746.83,240.51v88.28h13.88v-88.28c0-.8-.65-1.44-1.44-1.44h-11c-.8,0-1.44,.65-1.44,1.44Z"/>
  <rect class="cls-1" x="746.83" y="321.11" width="13.88" height="1.68"/>
  <rect class="cls-1" x="746.83" y="314.4" width="13.88" height="1.68"/>
  <rect class="cls-1" x="746.83" y="254.06" width="13.88" height="1.68"/>
  <rect class="cls-1" x="746.83" y="247.35" width="13.88" height="1.68"/>
  <path class="cls-20" d="M746.85,328.79v-84.25c0-.8-.65-1.44-1.44-1.44h-15.82c-.8,0-1.44,.65-1.44,1.44h0v84.25h18.71Z"/>
  <rect class="cls-1" x="728.14" y="318.24" width="18.71" height="1.68"/>
  <rect class="cls-1" x="731.46" y="247.92" width="12.07" height="40.03"/>
  <path class="cls-3" d="M779.41,244.53v84.25h-18.71v-84.25c0-.8,.65-1.44,1.44-1.44h15.82c.8,0,1.44,.65,1.44,1.44h0Z"/>
  <rect class="cls-1" x="760.7" y="318.24" width="18.71" height="1.68"/>
  <rect class="cls-1" x="764.02" y="247.92" width="12.07" height="40.03"/>
  <path class="cls-3" d="M856.36,478.77l8.33,61.14h0l-9.61,1.31h0l-8.33-61.14c-.08-.55,.31-1.06,.86-1.14l7.62-1.04c.55-.08,1.06,.31,1.14,.86Z"/>
  <polygon class="cls-1" points="847.34 484.4 847.18 483.24 856.79 481.93 856.95 483.09 847.34 484.4"/>
  <polygon class="cls-1" points="847.97 489.05 847.81 487.89 857.42 486.58 857.58 487.74 847.97 489.05"/>
  <polygon class="cls-1" points="853.66 530.85 853.5 529.69 863.12 528.37 863.28 529.53 853.66 530.85"/>
  <polygon class="cls-1" points="854.3 535.49 854.14 534.33 863.75 533.02 863.91 534.18 854.3 535.49"/>
  <path class="cls-20" d="M877.75,479.52v61.71h9.7v-61.71c0-.56-.45-1.01-1.01-1.01h-7.69c-.56,0-1.01,.45-1.01,1.01Z"/>
  <rect class="cls-1" x="877.75" y="535.86" width="9.7" height="1.17"/>
  <rect class="cls-1" x="877.75" y="531.17" width="9.7" height="1.17"/>
  <rect class="cls-1" x="877.75" y="488.99" width="9.7" height="1.17"/>
  <rect class="cls-1" x="877.75" y="484.3" width="9.7" height="1.17"/>
  <path class="cls-22" d="M877.76,541.22v-58.89c0-.56-.45-1.01-1.01-1.01h-11.06c-.56,0-1.01,.45-1.01,1.01v58.89h13.08Z"/>
  <rect class="cls-1" x="864.69" y="533.86" width="13.08" height="1.17"/>
  <rect class="cls-1" x="867.01" y="484.7" width="8.44" height="27.98"/>
  <path class="cls-22" d="M910.21,479.52v61.71h-9.7v-61.71c0-.56,.45-1.01,1.01-1.01h7.69c.56,0,1.01,.45,1.01,1.01Z"/>
  <rect class="cls-1" x="900.51" y="535.86" width="9.7" height="1.17"/>
  <rect class="cls-1" x="900.51" y="531.17" width="9.7" height="1.17"/>
  <rect class="cls-1" x="900.51" y="488.99" width="9.7" height="1.17"/>
  <rect class="cls-1" x="900.51" y="484.3" width="9.7" height="1.17"/>
  <path class="cls-20" d="M910.2,541.22v-58.89c0-.56,.45-1.01,1.01-1.01h11.06c.56,0,1.01,.45,1.01,1.01v58.89h-13.08Z"/>
  <rect class="cls-1" x="910.2" y="533.86" width="13.08" height="1.17"/>
  <rect class="cls-1" x="912.52" y="484.7" width="8.44" height="27.98"/>
  <path class="cls-3" d="M900.52,482.33v58.89h-13.08v-58.89c0-.56,.45-1.01,1.01-1.01h11.06c.56,0,1.01,.45,1.01,1.01h0Z"/>
  <rect class="cls-1" x="887.44" y="533.85" width="13.08" height="1.17"/>
  <rect class="cls-1" x="889.77" y="484.7" width="8.44" height="27.98"/>
  <path class="cls-20" d="M791.36,495.26v88.28h-13.88v-88.28c0-.8,.65-1.44,1.44-1.44h10.99c.8,0,1.44,.65,1.44,1.44h0Z"/>
  <rect class="cls-1" x="777.48" y="575.86" width="13.88" height="1.68"/>
  <rect class="cls-1" x="777.48" y="569.15" width="13.88" height="1.68"/>
  <rect class="cls-1" x="777.48" y="508.8" width="13.88" height="1.68"/>
  <rect class="cls-1" x="777.48" y="502.09" width="13.88" height="1.68"/>
  <path class="cls-22" d="M791.34,583.53v-84.25c0-.8,.65-1.44,1.44-1.44h15.82c.8,0,1.44,.65,1.44,1.44h0v84.25h-18.71Z"/>
  <rect class="cls-1" x="791.34" y="572.99" width="18.71" height="1.68"/>
  <rect class="cls-1" x="794.66" y="502.66" width="12.07" height="40.03"/>
  <path class="cls-22" d="M744.91,495.26v88.28h13.88v-88.28c0-.8-.65-1.44-1.44-1.44h-11c-.8,0-1.44,.65-1.44,1.44Z"/>
  <rect class="cls-1" x="744.91" y="575.86" width="13.88" height="1.68"/>
  <rect class="cls-1" x="744.91" y="569.15" width="13.88" height="1.68"/>
  <rect class="cls-1" x="744.91" y="508.8" width="13.88" height="1.68"/>
  <rect class="cls-1" x="744.91" y="502.09" width="13.88" height="1.68"/>
  <path class="cls-20" d="M744.93,583.53v-84.25c0-.8-.65-1.44-1.44-1.44h-15.82c-.8,0-1.44,.65-1.44,1.44h0v84.25h18.71Z"/>
  <rect class="cls-1" x="726.22" y="572.99" width="18.71" height="1.68"/>
  <rect class="cls-1" x="729.54" y="502.66" width="12.07" height="40.03"/>
  <path class="cls-3" d="M777.49,499.28v84.25h-18.71v-84.25c0-.8,.65-1.44,1.44-1.44h15.82c.8,0,1.44,.65,1.44,1.44Z"/>
  <rect class="cls-1" x="758.78" y="572.99" width="18.71" height="1.68"/>
  <rect class="cls-1" x="762.1" y="502.66" width="12.07" height="40.03"/>
  <path class="cls-3" d="M828.76,499.28v84.25h-18.71v-84.25c0-.8,.65-1.44,1.44-1.44h15.82c.8,0,1.44,.65,1.44,1.44Z"/>
  <rect class="cls-1" x="810.05" y="572.99" width="18.71" height="1.68"/>
  <rect class="cls-1" x="813.37" y="502.66" width="12.07" height="40.03"/>
  <path class="cls-20" d="M922.1,638.53v88.28h-13.88v-88.28c0-.8,.65-1.44,1.44-1.44h10.99c.8,0,1.44,.65,1.44,1.44h0Z"/>
  <rect class="cls-1" x="908.22" y="719.12" width="13.88" height="1.68"/>
  <rect class="cls-1" x="908.22" y="712.42" width="13.88" height="1.68"/>
  <rect class="cls-1" x="908.22" y="652.07" width="13.88" height="1.68"/>
  <rect class="cls-1" x="908.22" y="645.36" width="13.88" height="1.68"/>
  <path class="cls-22" d="M922.08,726.8v-84.25c0-.8,.65-1.44,1.44-1.44h15.82c.8,0,1.44,.65,1.44,1.44v84.25h-18.71Z"/>
  <rect class="cls-1" x="922.08" y="716.26" width="18.71" height="1.68"/>
  <rect class="cls-1" x="925.4" y="645.93" width="12.07" height="40.03"/>
  <path class="cls-22" d="M875.66,638.53v88.28h13.88v-88.28c0-.8-.65-1.44-1.44-1.44h-10.99c-.8,0-1.44,.65-1.44,1.44h0Z"/>
  <rect class="cls-1" x="875.66" y="719.12" width="13.88" height="1.68"/>
  <rect class="cls-1" x="875.66" y="712.42" width="13.88" height="1.68"/>
  <rect class="cls-1" x="875.66" y="652.07" width="13.88" height="1.68"/>
  <rect class="cls-1" x="875.66" y="645.36" width="13.88" height="1.68"/>
  <path class="cls-3" d="M908.24,642.55v84.25h-18.71v-84.25c0-.8,.65-1.44,1.44-1.44h15.82c.8,0,1.44,.65,1.44,1.44Z"/>
  <rect class="cls-1" x="889.53" y="716.26" width="18.71" height="1.68"/>
  <rect class="cls-1" x="892.84" y="645.93" width="12.07" height="40.03"/>
  <path class="cls-22" d="M936.21,238.93c-.59-.71-1.45-1.12-2.37-1.15-1.2,.16-1.14,1.75-3.25,3.75-1.72,1.63-5.04,3.7-7.71,2.83-2.22-.72-1.91-2.81-4.52-4.67-1.5-1.02-3.22-1.65-5.03-1.84,2.33,9.36,6.63,15.66,11.58,15.66,4.75,0,8.91-5.82,11.3-14.59Zm-12.69,27.27c-2.11,.1-3.25,2.36-7.35,9.19-2.02,3.36-3.52,5.76-4.63,7.54-.02,.67-.04,1.33-.04,2h26.83c0-.67-.03-1.32-.04-1.98-1.53-1.94-3.84-4.84-7.27-9.41-4.04-5.38-5.41-7.45-7.49-7.35Z"/>
  <path class="cls-1" d="M924.91,255.09c-8.4,0-14.99-14.55-14.99-33.12v-1.57h29.97v1.57c0,18.57-6.58,33.12-14.99,33.12Zm-11.83-31.55c.35,17.06,6.28,28.41,11.83,28.41s11.48-11.35,11.83-28.41h-23.66Z"/>
  <path class="cls-1" d="M939.9,286.51h-29.97v-1.57c0-18.57,6.58-33.12,14.99-33.12s14.99,14.55,14.99,33.12v1.57Zm-26.81-3.14h23.66c-.35-17.06-6.28-28.41-11.83-28.41s-11.48,11.35-11.83,28.41h0Z"/>
  <path class="cls-3" d="M949.06,283.36h-4.71v-59.82h4.71c.87,0,1.57-.7,1.58-1.57,0-.87-.7-1.57-1.57-1.58h-48.3c-.87,0-1.57,.7-1.58,1.57,0,.87,.7,1.57,1.57,1.58h4.72v59.82h-4.71c-.87,0-1.57,.71-1.57,1.58,0,.86,.7,1.56,1.57,1.57h48.29c.87,0,1.57-.71,1.57-1.58,0-.86-.7-1.56-1.57-1.57Zm-40.44-59.82h32.58v59.82h-32.58v-59.82Z"/>
  <path class="cls-27" d="M899.96,424.9c-.11-2.49-.04-4.93,.03-7.38l1.59-7.03,3.16-14.07,3.15-14.07,1.58-7.03c1.04-2.23,1.96-4.49,3.11-6.69,.1,2.48-.04,4.92-.05,7.38l-1.58,7.03-3.16,14.07-3.15,14.07-1.57,7.04c-.98,2.24-1.96,4.49-3.12,6.69Z"/>
  <path class="cls-20" d="M907.04,431.62c-1.8-9.45-3.52-18.92-5.15-28.39-.85-4.73-1.87-9.44-2.34-14.23-.53-4.8-.74-9.64-.63-14.47l.31-.04c1.45,4.61,2.6,9.31,3.43,14.07,.88,4.73,1.21,9.54,1.72,14.32,1.08,9.55,2.07,19.12,2.98,28.7l-.31,.04Z"/>
  <path class="cls-22" d="M920.81,376.76c-.28,2.47-.74,4.88-1.2,7.28l-2.68,6.69-5.34,13.39-5.34,13.39-2.67,6.7c-1.38,2.04-2.65,4.12-4.13,6.11,.3-2.47,.81-4.85,1.21-7.28l2.67-6.7,5.34-13.39,5.34-13.39,2.66-6.7c1.32-2.06,2.64-4.12,4.14-6.11Z"/>
  <rect class="cls-22" x="887.46" y="377.39" width="12.85" height="45.95" transform="translate(-67.34 212.28) rotate(-13.06)"/>
  <path class="cls-3" d="M919.49,438.87v.84c.21,4.23-3.03,7.85-7.26,8.09h-21.81c-4.23-.24-7.48-3.85-7.26-8.09v-32.74c-.21-4.23,3.03-7.85,7.26-8.09h21.81c4.23,.24,7.48,3.85,7.26,8.09v31.9Z"/>
  <rect class="cls-27" x="883.16" y="411.31" width="36.34" height="3.14"/>
  <rect class="cls-27" x="883.16" y="417.59" width="36.34" height="3.14"/>
  <path class="cls-22" d="M629.14,529.2c-.59-.71-1.45-1.12-2.37-1.15-1.2,.16-1.14,1.75-3.25,3.75-1.72,1.63-5.04,3.7-7.71,2.83-2.22-.72-1.91-2.81-4.52-4.67-1.5-1.02-3.22-1.65-5.03-1.84,2.33,9.36,6.63,15.66,11.58,15.66,4.75,0,8.91-5.82,11.3-14.59Zm-12.69,27.27c-2.11,.1-3.25,2.36-7.35,9.19-2.02,3.36-3.52,5.76-4.63,7.54-.02,.67-.04,1.33-.04,2h26.83c0-.67-.03-1.32-.04-1.98-1.53-1.94-3.84-4.84-7.27-9.41-4.04-5.38-5.41-7.45-7.49-7.35Z"/>
  <path class="cls-1" d="M617.85,545.36c-8.4,0-14.99-14.55-14.99-33.12v-1.57h29.97v1.57c0,18.57-6.58,33.12-14.99,33.12Zm-11.83-31.55c.35,17.06,6.28,28.41,11.83,28.41s11.48-11.35,11.83-28.41h-23.66Z"/>
  <path class="cls-1" d="M632.83,576.78h-29.97v-1.57c0-18.57,6.58-33.12,14.99-33.12s14.99,14.55,14.99,33.12v1.57Zm-26.81-3.14h23.66c-.35-17.06-6.28-28.41-11.83-28.41s-11.48,11.35-11.83,28.41Z"/>
  <path class="cls-3" d="M641.99,573.63h-4.71v-59.82h4.71c.87,0,1.57-.71,1.57-1.58,0-.86-.7-1.56-1.57-1.57h-48.29c-.87,0-1.57,.71-1.57,1.58,0,.86,.7,1.56,1.57,1.57h4.71v59.82h-4.71c-.87,0-1.57,.71-1.57,1.58,0,.86,.7,1.56,1.57,1.57h48.29c.87,0,1.57-.71,1.57-1.58,0-.86-.7-1.56-1.57-1.57h0Zm-40.44-59.82h32.58v59.82h-32.58v-59.82Z"/>
  <rect class="cls-11" x="283.27" y="420.53" width="195.11" height="97.58" rx="4.21" ry="4.21"/>
  <rect class="cls-4" x="436.94" y="420.53" width="41.44" height="97.58"/>
  <rect class="cls-4" x="303.33" y="497.93" width="121.29" height="5.86"/>
  <rect class="cls-4" x="303.33" y="470.58" width="121.29" height="5.86"/>
  <rect class="cls-4" x="303.33" y="445.59" width="121.29" height="5.86"/>
  <rect class="cls-11" x="380.98" y="540.09" width="3.43" height="29.75"/>
  <polygon class="cls-11" points="438.45 576.65 326.94 576.65 326.94 561.27 382.7 552.7 438.45 561.27 438.45 576.65"/>
  <polygon class="cls-22" points="303.69 448.67 299.94 443.54 295.32 443.54 295.32 432.44 312.42 432.44 312.42 443.54 304.72 443.54 303.69 448.67"/>
  <polygon class="cls-22" points="303.69 473.66 299.94 468.54 295.32 468.54 295.32 457.44 312.42 457.44 312.42 468.54 304.72 468.54 303.69 473.66"/>
  <polygon class="cls-22" points="303.69 500.87 299.94 495.74 295.32 495.74 295.32 484.64 312.42 484.64 312.42 495.74 304.72 495.74 303.69 500.87"/>
  <path class="cls-7" d="M403.33,545.66s-47.48-32.21-48.19-31.91-5.41,2.82,18.18,20.41c0,0-6.16,3.61-1.55,16.52,1.51,4.19,4.86,7.44,9.09,8.83,5.18,1.7,12.23,3.44,15.43,1.61l7.04-15.46Zm-55.6,227.98l-7.21,21.29s-26.72,21.59-61.11,27.62c0,0-10.48,4.92-10.42,12.55l103.75-.87-.33-39.57,3.03-20.33-27.71-.69Z"/>
  <path class="cls-17" d="M270.65,829.91l100.93-.84c1.42-.01,2.59,1.13,2.6,2.56h0c.01,1.43-1.13,2.6-2.56,2.61h0l-104.05,.87s-3-3.11,3.08-5.19Z"/>
  <path class="cls-17" d="M300.61,830.95s.94-5.33-4.42-12.65c2.34-2.49,5.72-3.73,9.11-3.35,1.23,2.03,2.24,4.19,3,6.43,1.31,3.58,2.24,7.88,.73,10.79l-8.42-1.22Zm25.08-26.1s8.72,13.56,3.57,26l9.88-.08s5.34-19.63-5.39-30.97c0,0-6.61,.23-8.06,5.05Z"/>
  <path class="cls-7" d="M326.08,704.55l-7.48,21.19s-26.99,21.25-61.45,26.84c0,0-10.54,4.79-10.58,12.41l103.75,.46,.17-39.57,3.29-20.29-27.7-1.04Z"/>
  <path class="cls-17" d="M248.29,759.84l100.93,.44c1.42,0,2.57,1.17,2.57,2.59h0c0,1.43-1.17,2.58-2.59,2.58l-104.05-.46s-2.96-3.14,3.14-5.15Z"/>
  <path class="cls-17" d="M278.24,761.26s1-5.32-4.26-12.71c2.37-2.46,5.76-3.66,9.16-3.23,1.2,2.04,2.18,4.21,2.92,6.47,1.26,3.6,2.14,7.91,.59,10.8l-8.4-1.33Zm25.41-25.78s8.54,13.67,3.23,26.05l9.88,.04s5.59-19.56-4.99-31.04c0,0-6.61,.14-8.12,4.95Z"/>
  <path class="cls-26" d="M450.78,619.1l-68.49-23.83c-17.77-6.19-37.23,2.99-43.75,20.64-12.1,32.29-21.34,65.59-27.61,99.5-.37,2.12,.92,4.18,2.99,4.78l21.62,6.22,2.14,54.87c.09,2.26,1.95,4.05,4.21,4.05h31.01c2.07,0,3.83-1.5,4.16-3.54l14.74-91.73,34.05,3.06s178.68,36.35,150.36-94.5l-76.52,3.83-8.93,8.28c-10.75,9.97-26.12,13.19-39.97,8.37Z"/>
  <path class="cls-5" d="M465.24,697.51c-18.29-8.84-36.7-17.39-55.11-25.96l-27.69-12.67c-9.22-4.25-18.47-8.44-27.74-12.57l.13,.07c-1.89-1.08-4.16-1.3-6.23-.61-1.93,.71-3.61,1.95-4.86,3.59-2.28,3.1-3.96,6.59-4.97,10.3-1.97,7.23-3.18,14.66-3.58,22.14-.91,14.86-.79,29.77,.35,44.61-.09-7.43-.24-14.86-.06-22.28,.18-7.42,.42-14.84,1.14-22.21,.6-7.35,1.9-14.63,3.89-21.73,.97-3.47,2.56-6.73,4.7-9.63,1.02-1.34,2.4-2.36,3.98-2.94,1.51-.49,3.15-.33,4.54,.43l.1,.06,.03,.02c9.22,4.24,18.47,8.44,27.73,12.58l27.78,12.47c18.58,8.2,37.14,16.41,55.84,24.34Z"/>
  <path class="cls-5" d="M313.27,703.13c3.34,2.01,6.87,3.68,10.55,4.98,3.64,1.38,7.42,2.39,11.27,3-3.33-2.02-6.87-3.68-10.55-4.98-3.64-1.38-7.42-2.39-11.27-3Zm65.67,66.92c-6.92-.75-13.88-1.1-20.85-1.05-6.96-.05-13.92,.3-20.85,1.05,6.92,.75,13.88,1.1,20.85,1.05,6.96,.05,13.92-.31,20.85-1.05Zm12.85-79.99c1.53-1.47,2.78-3.21,3.67-5.13,.97-1.89,1.57-3.94,1.78-6.06-1.54,1.47-2.78,3.21-3.67,5.13-.96,1.89-1.57,3.94-1.78,6.06Z"/>
  <rect class="cls-6" x="634.44" y="588.7" width="15.55" height="246.68"/>
  <rect class="cls-6" x="212.42" y="576.78" width="467.34" height="11.93" rx="2.68" ry="2.68"/>
  <rect class="cls-6" x="243.44" y="588.7" width="15.55" height="246.68"/>
  <path class="cls-23" d="M231.03,588.7h431.19v33.65c0,2.96-2.4,5.36-5.36,5.36H236.4c-2.96,0-5.36-2.4-5.36-5.36v-33.65h0Z"/>
  <path class="cls-22" d="M276,348.31l85.57,.39,25.05,27.56v-27.56h32.1c3.49,0,6.32-2.83,6.32-6.32v-80.9c0-3.49-2.83-6.32-6.32-6.32h-142.69c-3.49,0-6.32,2.83-6.32,6.32v80.51c0,3.48,2.81,6.3,6.29,6.32Z"/>
  <g class="cls-15">
    <polygon class="cls-11" points="425.03 255.17 425.03 258.44 367.38 301.72 425.03 345.01 425.03 348.28 424.72 348.7 421.24 348.7 363.03 304.98 347.37 316.74 331.71 304.98 273.5 348.7 270.02 348.7 269.71 348.28 269.71 345.01 327.36 301.72 269.71 258.44 269.71 255.17 274.06 255.17 347.37 310.21 420.68 255.17 425.03 255.17"/>
  </g>
  <path class="cls-7" d="M540.24,482.3l2.04-73.82-55.12,3.02,2.42,44.07c.53,9.66,8.79,17.06,18.45,16.53h0l1.26-.07,.41,12.6,30.54-2.34Z"/>
  <polygon class="cls-24" points="509.08 472.04 517.9 471.56 509.49 484.64 509.08 472.04"/>
  <path class="cls-8" d="M490.75,610.73c5.7-5.29,6.23-12.59,6.29-20.37l2.82-10.24c-9.75,22.22-33.42,17.67-33.42,17.67-11.86-.38-74.31-35.9-74.31-35.9l6.75-19.24,64.07,15.51s11.19-19.8,22.38-41.9c11.19-22.1,24.36-31.62,24.36-31.62l34.15-5.13c61.22,5.36,32.36,119.1,32.36,119.1,28.31,130.85-150.36,94.5-150.36,94.5-7.51-21.93-4.38-46.11,8.46-65.4,9.73,0,23.65,1.01,38.91-5.1,6.65-2.62,12.64-6.67,17.54-11.88Z"/>
  <rect class="cls-23" x="558.01" y="690.34" width="10.53" height="144.12"/>
  <rect class="cls-23" x="454.86" y="690.34" width="10.53" height="144.12"/>
  <path class="cls-2" d="M462.95,558.16c-.24,1.18-.14,2.41,.28,3.54,.38,1.14,1.08,2.16,2.01,2.92,.82-2.42-.13-5.09-2.29-6.46Zm32.14,30.51c3.48-4.7,6.63-9.62,9.44-14.74,2.89-5.08,5.44-10.35,7.61-15.77-3.48,4.69-6.64,9.62-9.44,14.74-2.89,5.08-5.43,10.35-7.61,15.77Z"/>
  <path class="cls-1" d="M242.11,565.94h64.49v9.62h-64.49c-2.36,0-4.27-1.91-4.27-4.27h0v-1.09c0-2.36,1.91-4.27,4.27-4.27Z"/>
  <path class="cls-20" d="M308.61,575.8c-.02,.5-.43,.89-.93,.87h-66.79c-3.25-.79-5.24-4.05-4.46-7.3,.53-2.2,2.25-3.92,4.46-4.46h66.79c.5-.01,.91,.38,.93,.87v.69c-.02,.5-.43,.89-.93,.87h-66.79c-1.9,.46-3.08,2.38-2.61,4.28,.31,1.29,1.32,2.3,2.61,2.61h66.79c.5-.01,.91,.38,.93,.87v.69Z"/>
  <path class="cls-1" d="M232.07,554.18h64.49v9.62h-64.49c-2.36,0-4.27-1.91-4.27-4.27h0v-1.09c0-2.36,1.91-4.27,4.27-4.27h0Z"/>
  <path class="cls-22" d="M298.57,564.05c-.02,.5-.43,.89-.93,.87h-66.79c-3.25-.79-5.24-4.05-4.46-7.3,.53-2.2,2.25-3.92,4.46-4.46h66.79c.5-.01,.91,.38,.93,.87v.69c-.02,.5-.43,.89-.93,.87h-66.79c-1.9,.46-3.08,2.38-2.61,4.28,.31,1.29,1.32,2.3,2.61,2.61h66.79c.5-.01,.91,.38,.93,.87v.69Z"/>
  <path class="cls-1" d="M252.62,542.43h64.49v9.62h-64.49c-2.36,0-4.27-1.91-4.27-4.27h0v-1.09c0-2.36,1.91-4.27,4.27-4.27h0Z"/>
  <path class="cls-20" d="M319.12,552.29c-.02,.5-.43,.89-.93,.87h-66.79c-3.25-.79-5.24-4.05-4.46-7.3,.53-2.2,2.25-3.92,4.46-4.46h66.79c.5-.01,.91,.38,.93,.87v.69c-.02,.5-.43,.89-.93,.87h-66.79c-1.9,.46-3.08,2.38-2.61,4.28,.31,1.29,1.32,2.3,2.61,2.61h66.79c.5-.01,.91,.38,.93,.87v.69Z"/>
  <path class="cls-13" d="M478.39,389.81s-1.42-15.64,14.04-4.98c0,0,8.8-23.78,36.35,7.83,0,0,40.45,1.3,25.2,35.28,2.18,4.98,5.12,9.58,8.73,13.64,11.06,12.79,17.81,11.31,27.28,25.77,7.44,11.35,8.19,19.75,8.34,21.98,.59,7.37-.99,14.74-4.55,21.22-6.02,10.64-18.39,19.35-31.83,18.95-15.42-.47-23.2-14.25-32.59-22.73-20.09-18.17-20.82-55.88-23.01-62.34,0,0,10.12-6.27,1.8-12.63-1.85-1.45-4.25-2.01-6.55-1.52-1.59,.15-2.82,1.46-2.87,3.06l-11.58-21.82s-10.49,3.1-10.63-9.52c0,0-11.27-5.84,1.86-12.17Z"/>
  <path class="cls-6" d="M601.26,666.91s13.2-39.6,2.87-120.52c0,0-4.02-27.26-30.99-29.27-26.97-2.01-46.77,41.71-54.81,86.43-8.03,44.71-25.83,84.68-84.08,85.79,0,0-76.97,13.16,86.91,20.62,0,0,70.05,.57,80.09-43.04Z"/>
  <path class="cls-8" d="M506.17,455.14c8.13,0,8.14-12.63,0-12.63s-8.14,12.63,0,12.63Z"/>
  <rect class="cls-6" x="0" y="833.66" width="1000" height="3.83"/>
</svg>